<?xml version="1.0" encoding="utf-8"?>
<!-- Generator: Adobe Illustrator 27.3.1, SVG Export Plug-In . SVG Version: 6.00 Build 0)  -->
<svg version="1.1" id="Camada_1" xmlns="http://www.w3.org/2000/svg" xmlns:xlink="http://www.w3.org/1999/xlink" x="0px" y="0px"
	 viewBox="0 0 1160 656" style="enable-background:new 0 0 1160 656;" xml:space="preserve">
<style type="text/css">
	.st0{fill:url(#SVGID_1_);}
	.st1{display:none;}
	.st2{fill:url(#SVGID_00000059271293091278749820000005362695405096199583_);}
	.st3{fill:url(#SVGID_00000021802297499291947430000004314604737939354244_);}
	.st4{fill:url(#SVGID_00000145749613937521672030000010782030383248570534_);}
	.st5{fill:url(#SVGID_00000029031551062436172400000000379176620789229702_);}
	.st6{fill:url(#SVGID_00000075135931714930366480000008504484037121173136_);}
	.st7{fill:url(#SVGID_00000158030182084369037710000014235742647044641721_);}
	.st8{fill:url(#SVGID_00000146467556167472550760000009889442979933247404_);}
	.st9{fill:url(#SVGID_00000127009060974319763630000009080557493853724849_);}
	.st10{fill:url(#SVGID_00000123437005911258890140000005236074600573058450_);}
	.st11{fill:url(#SVGID_00000036217248958562807910000010884802625365021061_);}
	.st12{fill:url(#SVGID_00000103959558250831915360000003015413703175445660_);}
	.st13{fill:url(#SVGID_00000153688827599658923940000009626747984868261018_);}
	.st14{fill:url(#SVGID_00000169532007458804822530000003666484578871352737_);}
	.st15{fill:url(#SVGID_00000172400081562590934490000011484779730141703069_);}
</style>
<radialGradient id="SVGID_1_" cx="325.5572" cy="329.5526" r="325.5572" gradientTransform="matrix(1.7816 0 0 0.6934 0 -8.9351)" gradientUnits="userSpaceOnUse">
	<stop  offset="0.3947" style="stop-color:#32A936"/>
	<stop  offset="0.4262" style="stop-color:#40A934"/>
	<stop  offset="0.4711" style="stop-color:#5CAB2E"/>
	<stop  offset="0.5241" style="stop-color:#7EAD22"/>
	<stop  offset="0.5832" style="stop-color:#9AAE07"/>
	<stop  offset="0.6467" style="stop-color:#ADAA00"/>
	<stop  offset="0.69" style="stop-color:#B3A400"/>
</radialGradient>
<rect y="-6.16" class="st0" width="1160" height="451.48"/>
<rect x="1087.37" y="-271.27" style="fill:none;" width="3.26" height="3.26"/>
<g class="st1">
</g>
<g class="st1">
</g>
<g>
	<path d="M272.63,98.2c6.56-18.2,13.96-31.84,22.22-40.94c10.79-11.43,19.89-17.14,27.3-17.14c0.63,0,1.17,0.11,1.59,0.32
		c0.63,0,1.17,0,1.59,0c0.43,0,2.33-0.53,5.71-1.59c3.39-1.06,5.29-1.59,5.71-1.59c10.37,0,19.31,2.33,26.82,6.98
		c7.51,4.66,16.66,13.33,27.45,26.03c-3.38-9.94-5.08-16.08-5.08-18.41V37.58c0-1.27,1.48-2.59,4.44-3.97
		c2.97-1.37,5.08-2.06,6.35-2.06c6.14,0,14.5,2.22,25.07,6.67c3.39,1.27,6.3,2.75,8.73,4.44c2.44,1.7,4.29,3.17,5.55,4.44
		c13.54,5.93,24.02,10.27,31.42,13.01c0.85,0.43,4.44,7.41,10.79,20.95c6.77,14.39,10.16,23.6,10.16,27.61
		c0,0.85-0.21,1.48-0.63,1.9h-1.9c-3.38-3.17-5.29-4.76-5.71-4.76c-0.42,0-0.74,0.11-0.95,0.32c-0.21,0.21-0.42,0.32-0.63,0.32v1.27
		l7.62,10.79c0,0.21-0.53,2.49-1.59,6.82c-1.06,4.34-1.59,7.14-1.59,8.41c-0.42,3.39-0.63,6.56-0.63,9.52c0,0.43,0,0.85,0,1.27
		l2.86,45.07c0.21,3.39,0.32,5.61,0.32,6.67c0,0.21-1.06,6.56-3.17,19.04c-1.69,10.16-2.54,16.72-2.54,19.68c0,0.21,0,2.12,0,5.71
		c0.21,3.39,0.32,5.93,0.32,7.62c-1.9-0.63-3.28-2.64-4.13-6.03c-0.84-2.54-1.59-5.08-2.22-7.62c-5.92-12.7-15.13-25.81-27.61-39.36
		c-4.44-4.65-10.32-12.22-17.62-22.69c-7.3-10.47-12.64-17.4-16.03-20.79c-0.84,0.85-1.91,1.59-3.17,2.22l-5.4-6.67l-3.49,22.53
		c0.21,0.63,1.17,2.44,2.86,5.4c0.85,1.27,1.27,3.6,1.27,6.98c0,4.44-0.84,7.73-2.54,9.84c-0.42,0-0.84,0-1.27,0
		c-0.42,0-0.79,0-1.11,0s-0.58,0-0.79,0c-0.21,0-0.42,0-0.63,0l-3.81,28.57c0.63,1.7,1.9,3.92,3.81,6.67
		c1.48,1.9,2.22,4.24,2.22,6.98c0,0.63-0.42,2.86-1.27,6.67c-0.21,1.06-1.06,2.54-2.54,4.44c-1.48,1.9-2.22,3.17-2.22,3.81
		c0,0.21,0,0.53,0,0.95c0,0.43,0,0.69,0,0.79c0,0.11,0,0.85,0,2.22c0,1.38,0,2.7,0,3.97c0,7.41,0.43,12.8,1.27,16.19
		c1.9,2.97,3.6,5.08,5.08,6.35c2.54,6.98,3.81,12.06,3.81,15.23c0,1.06-0.68,2.54-2.06,4.44c-1.37,1.9-2.06,3.81-2.06,5.71
		l6.35,33.33c5.71-3.17,9.95-5.71,12.7-7.62c1.27,1.27,1.9,2.22,1.9,2.86c0-1.27-1.27,3.38-3.81,13.96
		c-0.21-0.21-0.58-0.43-1.11-0.63c-0.53-0.21-0.79-0.43-0.79-0.63c0-1.06,0-2.01,0-2.86c0-2.12-0.21-3.81-0.63-5.08
		c-3.38,2.75-6.03,5.08-7.94,6.98c-5.08-4.24-8.99-7.62-11.74-10.16c-0.21,1.48-0.48,3.12-0.79,4.92c-0.32,1.79-1.43,2.8-3.33,3.01
		l-7.93-11.74c-1.69,4.23-3.06,7.83-4.13,10.79h-2.54c-2.96-5.08-5.18-8.15-6.67-9.2c-0.84,2.54-1.69,4.97-2.54,7.3
		c-1.27,2.96-2.64,4.97-4.13,6.03c-3.6-6.35-6.24-11.11-7.94-14.28l-4.76,12.7h-2.22c-0.84-0.43-1.43-1.64-1.75-3.65
		c-0.32-2.01-1.11-3.12-2.38-3.33c-0.63,1.69-1.16,3.38-1.59,5.08c-0.84,2.75-1.9,4.13-3.17,4.13s-2.27-1.43-3.02-4.28
		c-0.74-2.86-1.75-4.29-3.01-4.29c-1.27,2.33-2.54,5.71-3.81,10.16h-3.49c-0.84-0.85-1.27-1.59-1.27-2.22
		c0-3.6,1.17-8.04,3.49-13.33c0.43-1.06,1.7-2.12,3.81-3.17c1.9,1.69,3.28,2.96,4.13,3.81l1.59-28.88v-0.32
		c0-2.75-0.63-4.76-1.9-6.03c-5.92-6.77-8.89-14.81-8.89-24.12c0-4.02,1.48-6.87,4.44-8.57c2.12-1.06,3.81-1.9,5.08-2.54
		c3.39-10.58,5.08-19.78,5.08-27.61c0-0.63-0.74-1.75-2.22-3.33c-1.48-1.59-2.33-2.59-2.54-3.01c-0.84-1.9-1.27-5.18-1.27-9.84
		v-0.32c0-12.9,4.24-19.36,12.7-19.36c0.43,0,0.9,0.11,1.43,0.32c0.53,0.21,0.9,0.32,1.11,0.32c1.48,0,3.92-3.7,7.3-11.11
		c3.17-6.56,5.19-11.32,6.03-14.28c0.21-1.06,0.32-2.33,0.32-3.81c0-1.06-0.1-2.59-0.32-4.6c-0.21-2.01-0.32-3.44-0.32-4.28
		c0-1.9,0.95-4.65,2.86-8.25c3.39-1.06,6.14-1.8,8.25-2.22c0-0.21,0-0.53,0-0.95c0-1.27,0.85-3.33,2.54-6.19
		c1.7-2.86,2.65-4.71,2.86-5.55h-1.9c-0.42,0-1,0.32-1.75,0.95c-0.74,0.63-1.32,0.95-1.75,0.95c-0.42,0-0.84-0.1-1.27-0.32
		c-0.42-0.21-0.68-0.48-0.79-0.79c-0.1-0.32-0.37-0.9-0.79-1.75l5.08-17.14c-1.69-0.63-3.65-1.48-5.87-2.54
		c-2.22-1.06-3.33-2.33-3.33-3.81c0-0.21,0-0.53,0-0.95h-13.01c-1.9-5.08-3.06-9.2-3.49-12.38c-0.84-5.71-2.96-9.84-6.35-12.38
		l-0.95,0.95l3.17,20.63c0,1.48-0.42,2.54-1.27,3.17c-4.87,4.24-10.05,6.35-15.55,6.35c-0.42,0-1.06,0-1.9,0
		c-0.84-0.21-1.48-0.32-1.9-0.32c-0.42,0-4.29-0.26-11.58-0.79c-7.3-0.53-11.05-0.79-11.27-0.79c-6.98,0-15.81,2.97-26.5,8.89
		c-10.68,5.93-15.71,8.89-15.08,8.89c-0.63,0-1.16-0.21-1.59-0.63C264.7,123.07,268.62,110.69,272.63,98.2z M269.14,127.4
		c0.21,0,1.48-0.84,3.81-2.54c2.97-1.9,6.03-3.49,9.2-4.76c9.95-3.81,19.47-6.45,28.56-7.93l12.7-40.31h-2.86
		c-0.21,0-2.96,1.06-8.25,3.17c-9.94,3.81-19.04,11.54-27.3,23.17c-5.92,9.73-11.85,19.47-17.77,29.2H269.14z M298.02,77.57
		c-0.84-0.42-2.01-1-3.49-1.75c-1.48-0.74-2.64-1.32-3.49-1.75l-15.55,30.79C282.47,93.66,289.98,84.56,298.02,77.57z M297.39,73.13
		c2.54,1.06,4.13,1.59,4.76,1.59c-1.06,0,2.49-1.53,10.63-4.6c8.15-3.06,14.87-4.6,20.15-4.6c0.43,0,2.22,0.32,5.4,0.95
		s4.97,0.95,5.4,0.95h4.44c-2.96-11.21-5.29-19.46-6.98-24.76h-0.32c1.7,0-1.06,0.53-8.25,1.59c-9.94,1.27-16.5,2.7-19.68,4.29
		c-3.17,1.59-6.98,4.39-11.43,8.41c-5.08,4.87-8.04,9-8.89,12.38v1.9C293.26,71.44,294.85,72.07,297.39,73.13z M327.54,113.91
		c5.5,0.32,8.36,0.48,8.57,0.48c4.02,0,6.03-2.11,6.03-6.35c0-0.42-0.53-3.22-1.59-8.41c-1.06-5.18-1.59-7.98-1.59-8.41
		c0-5.29,1.7-7.93,5.08-7.93c2.97,0,5.93,2.65,8.89,7.93c2.97,7.41,4.97,13.23,6.03,17.46h9.21c4.44,0,13.54-2.22,27.29-6.67
		c2.12-5.29,3.81-9.52,5.08-12.7c-5.71-0.21-16.29-3.44-31.74-9.68c-15.44-6.24-27.61-9.36-36.5-9.36l-4.44,0.95
		c-7.4,26.24-11.43,40.31-12.06,42.21C318.13,113.44,322.04,113.6,327.54,113.91z M338.01,291.49h29.2c7.41,0,14.39,0.74,20.95,2.22
		c4.02,1.06,5.93,1.59,5.71,1.59h4.44v-2.22c0-5.5-1.06-9.68-3.17-12.54c-2.11-2.86-7.4-5.44-15.87-7.78
		c-12.9-3.38-23.91-5.08-33.01-5.08c-4.23,0-8.46,1.38-12.7,4.13L338.01,291.49z M342.14,223.26c0,1.9,0,3.28,0,4.13
		c0.63,0,1.75-0.1,3.33-0.32c1.59-0.21,2.59-0.32,3.01-0.32c6.14,0,13.86,1.8,23.17,5.4c6.56,2.75,13.01,5.4,19.36,7.93h1.9
		c0.63-1.9,0.95-3.6,0.95-5.08c0-2.96-1.27-5.92-3.81-8.89c-4.44-5.08-12.9-10.58-25.39-16.5c-4.87-2.33-9.52-3.49-13.97-3.49
		c0.43,0-1.48,0.32-5.71,0.95c-2.11,3.17-3.17,7.62-3.17,13.33C341.82,220.61,341.93,221.56,342.14,223.26z M390.7,270.86
		c-0.63-1.27-0.95-2.96-0.95-5.08c0-1.27,0.16-3.28,0.48-6.03c0.32-2.75,0.48-4.76,0.48-6.03c0-2.75-0.74-5.71-2.22-8.89
		c-5.71-2.54-11.43-5.18-17.14-7.93c-7.4-3.17-13.22-4.76-17.46-4.76c-3.81,0-6.03,0.74-6.67,2.22
		c-2.54,12.49-4.23,22.01-5.08,28.57L390.7,270.86z M342.14,327.99h0.32c1.27,0,2.44,1.06,3.49,3.17c1.7,2.75,2.86,4.44,3.49,5.08
		c2.54-5.71,4.44-10.37,5.71-13.96c1.48,0.21,3.02,2.06,4.6,5.55s3.02,6.82,4.29,10c1.9-5.5,3.39-9.84,4.44-13.01h0.32
		c0.21,0,0.43-0.11,0.63-0.32c3.17,3.81,5.5,6.87,6.98,9.2h1.9c1.27-5.71,2.22-10.16,2.86-13.33l0.32-0.32h0.63
		c2.12,0,5.29,5.08,9.52,15.23c1.48-4.44,2.65-7.73,3.49-9.84h1.27c2.12,2.96,3.81,5.18,5.08,6.67c-0.84-3.17-2.11-9.63-3.81-19.36
		c-0.84-5.93-2.33-10.37-4.44-13.33c-13.75-2.75-25.07-4.13-33.96-4.13c-0.21,0-0.58,0-1.11,0c-0.53,0-1,0-1.43,0
		c-5.29,0-10.16,1.27-14.6,3.81V327.99z M353.25,69c1.48,0.43,2.44,0.63,2.86,0.63c-2.54-10.36-4.55-18.51-6.03-24.44
		c-1.27-1.27-2.33-2.11-3.17-2.54c-0.84,0.85-1.37,1.48-1.59,1.9L353.25,69z M361.5,71.23c16.08,5.5,28.25,9.84,36.5,13.01
		c-6.35-7.19-12.8-14.39-19.36-21.58c-8.89-9.1-16.93-14.6-24.12-16.5C356,52.71,358.33,61.07,361.5,71.23z M389.11,218.18
		l3.17-33.96c-9.94-5.5-16.08-8.25-18.41-8.25c-1.69,0-3.17,0.32-4.44,0.95c-5.08,11-8.89,19.47-11.43,25.39L389.11,218.18z
		 M371.02,169.3c11.85,2.97,20.84,7.73,26.98,14.28c0.63-0.63,0.95-1.59,0.95-2.86c0-3.17-3.44-7.83-10.31-13.97
		c-6.87-6.13-11.79-9.2-14.76-9.2c-3.17,0-4.76,2.44-4.76,7.3C369.12,166.34,369.75,167.82,371.02,169.3z M377.37,115.34
		c3.81,0,5.93,1.06,6.35,3.17l-2.54,15.23c7.2-2.75,10.27-4.13,9.2-4.13c1.48,0,2.86,1.64,4.13,4.92c1.27,3.28,1.9,5.55,1.9,6.82
		c3.81-4.23,5.61-6.35,5.4-6.35c1.7,0,3.28,2.12,4.76,6.35l-11.11-34.28l-18.73,8.25C376.95,115.34,377.16,115.34,377.37,115.34z
		 M395.46,164.54l4.44-19.68c-3.38,4.24-5.29,6.35-5.71,6.35c-1.48,0-2.64-2.54-3.49-7.62c-0.21-2.96-0.42-5.82-0.63-8.57
		c-4.65,6.77-8.36,12.8-11.11,18.09L395.46,164.54z M391.34,51.23c8.68,2.75,15.34,4.87,20,6.35c-7.62-5.5-14.6-10.26-20.95-14.28
		C390.81,46.68,391.13,49.33,391.34,51.23z M411.65,51.87c1.91-3.81,2.86-5.92,2.86-6.35c0-2.11-2.54-4.23-7.62-6.35
		c-4.23-1.48-7.19-2.22-8.89-2.22h-0.63c-2.75,0-4.76,0.95-6.03,2.86L411.65,51.87z M408.16,87.1h4.13l-2.54-25.39
		c-5.71-2.11-11.43-4.13-17.14-6.03C395.99,69.85,401.18,80.33,408.16,87.1z M415.78,143.91c9.1,19.26,17.03,32.17,23.8,38.72
		c4.87-3.6,10.58-8.36,17.14-14.28l-3.49-23.17c-1.48-10.58-3.38-19.15-5.71-25.71c-0.84-3.38-1.69-6.77-2.54-10.16
		c-1.48-4.44-4.02-8.14-7.62-11.11c-1.06-1.06-4.18-2.27-9.36-3.65c-5.18-1.37-8.94-2.06-11.27-2.06c-3.38,0-6.67,0.79-9.84,2.38
		c-3.17,1.59-4.76,3.86-4.76,6.82C402.13,110.58,406.68,124.66,415.78,143.91z M417.68,83.92c1.48,2.75,4.55,4.13,9.2,4.13
		c4.87,0,16.4-9.1,34.59-27.3l-38.72-13.01c-4.87,0.85-7.3,9-7.3,24.44C415.46,77.89,416.2,81.81,417.68,83.92z M441.17,92.81
		c0.85,0,4.02-1.79,9.52-5.4c-0.63-2.11-2.01-4.23-4.13-6.35c-5.08,4.02-8.89,7.2-11.43,9.52
		C440.43,92.07,442.44,92.81,441.17,92.81z M457.67,201.04c7.41,8.04,12.38,14.6,14.92,19.68l-14.6-46.34l-14.92,11.11
		C447.94,190.78,452.81,195.96,457.67,201.04z M449.42,117.25c3.6,13.54,6.98,22.96,10.16,28.25c1.48,2.54,4.55,4.87,9.21,6.98
		c3.81,1.7,7.62,3.39,11.43,5.08c0-0.21,0.11-0.9,0.32-2.06c0.21-1.16,0.32-1.95,0.32-2.38c0-8.67-2.33-19.78-6.98-33.33
		c-6.13-17.98-13.65-26.98-22.54-26.98c-1.27,0-2.7,0.63-4.28,1.9s-2.38,2.33-2.38,3.17C444.66,99.58,446.24,106.04,449.42,117.25z
		 M479.89,90.59c-4.02-9.52-7.19-16.4-9.52-20.63c-0.63-1.69-2.01-2.54-4.13-2.54c-2.54,0-6.03,1.59-10.47,4.76
		c-1.27,0.85-2.75,2.65-4.44,5.4L479.89,90.59z M457.99,89c3.39,2.33,5.29,3.7,5.71,4.13c4.02,3.39,7.51,8.47,10.47,15.23
		c5.08,11.43,7.62,17.25,7.62,17.46v-6.03c0-0.42-1.21-2.8-3.65-7.14c-2.43-4.33-3.65-6.71-3.65-7.14c0-2.54,1.8-3.81,5.4-3.81
		c1.06,0,2.22,0.11,3.49,0.32c-0.42-3.38-4.13-6.77-11.11-10.16c-6.13-2.54-12.27-5.18-18.41-7.93v1.9
		C453.86,86.25,455.24,87.31,457.99,89z M458.3,151.53c0,3.17,2.86,6.67,8.57,10.47c4.44,2.75,8.78,5.61,13.01,8.57h1.9v-0.32
		c0-4.02-3.06-8.25-9.2-12.7c-5.08-3.38-9.84-5.71-14.28-6.98C458.3,150.79,458.3,151.1,458.3,151.53z M477.98,215.32
		c2.75-8.46,4.13-18.2,4.13-29.2v-2.22c0-5.5-0.95-8.78-2.86-9.84c-6.13-3.38-12.17-6.87-18.09-10.47L477.98,215.32z"/>
</g>
<radialGradient id="SVGID_00000096019148835393539050000009309074752270379700_" cx="568.3788" cy="211.6121" r="141.2115" gradientUnits="userSpaceOnUse">
	<stop  offset="0" style="stop-color:#FFEF26"/>
	<stop  offset="0.0595" style="stop-color:#FFE000"/>
	<stop  offset="0.1303" style="stop-color:#FFD300"/>
	<stop  offset="0.2032" style="stop-color:#FECB00"/>
	<stop  offset="0.2809" style="stop-color:#FDC800"/>
	<stop  offset="0.6685" style="stop-color:#F18F34"/>
	<stop  offset="0.8876" style="stop-color:#E95F32"/>
	<stop  offset="1" style="stop-color:#E3312D"/>
</radialGradient>
<path style="fill:url(#SVGID_00000096019148835393539050000009309074752270379700_);" d="M422.64,204.08v-29.99l5.98-6.01h-5.98v-36
	h27l9,9v15.01l-7.52,7.49l7.52,7.52v23.98l-9,9H422.64z M434.63,162.1l11.99-12.02v-5.98h-11.99V162.1z M446.62,192.06v-15.01
	l-4.5-4.5l-7.49,7.52v11.99H446.62z"/>
<radialGradient id="SVGID_00000106849617967822714680000006710302299098374821_" cx="568.3788" cy="211.6121" r="141.2115" gradientUnits="userSpaceOnUse">
	<stop  offset="0" style="stop-color:#FFEF26"/>
	<stop  offset="0.0595" style="stop-color:#FFE000"/>
	<stop  offset="0.1303" style="stop-color:#FFD300"/>
	<stop  offset="0.2032" style="stop-color:#FECB00"/>
	<stop  offset="0.2809" style="stop-color:#FDC800"/>
	<stop  offset="0.6685" style="stop-color:#F18F34"/>
	<stop  offset="0.8876" style="stop-color:#E95F32"/>
	<stop  offset="1" style="stop-color:#E3312D"/>
</radialGradient>
<path style="fill:url(#SVGID_00000106849617967822714680000006710302299098374821_);" d="M463.3,204.08V180.1h5.98l-5.98-6.01
	v-33.01l9-9h18l9,9v63h-12.02V180.1h-11.99v23.98H463.3z M487.28,168.08V144.1h-11.99v23.98H487.28z"/>
<radialGradient id="SVGID_00000147213099570003539640000011920449421601381769_" cx="568.3788" cy="211.6121" r="141.2115" gradientUnits="userSpaceOnUse">
	<stop  offset="0" style="stop-color:#FFEF26"/>
	<stop  offset="0.0595" style="stop-color:#FFE000"/>
	<stop  offset="0.1303" style="stop-color:#FFD300"/>
	<stop  offset="0.2032" style="stop-color:#FECB00"/>
	<stop  offset="0.2809" style="stop-color:#FDC800"/>
	<stop  offset="0.6685" style="stop-color:#F18F34"/>
	<stop  offset="0.8876" style="stop-color:#E95F32"/>
	<stop  offset="1" style="stop-color:#E3312D"/>
</radialGradient>
<path style="fill:url(#SVGID_00000147213099570003539640000011920449421601381769_);" d="M504.06,204.08v-47.99h5.98l-5.98-6.01v-18
	l23.98,24.01v-24.01h12.02v72h-12.02v-29.99l-11.99-11.99v41.98H504.06z"/>
<radialGradient id="SVGID_00000122712204172188553530000014859663713929804204_" cx="568.3788" cy="211.6121" r="141.2115" gradientUnits="userSpaceOnUse">
	<stop  offset="0" style="stop-color:#FFEF26"/>
	<stop  offset="0.0595" style="stop-color:#FFE000"/>
	<stop  offset="0.1303" style="stop-color:#FFD300"/>
	<stop  offset="0.2032" style="stop-color:#FECB00"/>
	<stop  offset="0.2809" style="stop-color:#FDC800"/>
	<stop  offset="0.6685" style="stop-color:#F18F34"/>
	<stop  offset="0.8876" style="stop-color:#E95F32"/>
	<stop  offset="1" style="stop-color:#E3312D"/>
</radialGradient>
<path style="fill:url(#SVGID_00000122712204172188553530000014859663713929804204_);" d="M544.81,204.08V180.1h5.98l-5.98-6.01
	v-33.01l9-9h18l9,9v63h-12.02V180.1H556.8v23.98H544.81z M568.79,168.08V144.1H556.8v23.98H568.79z"/>
<radialGradient id="SVGID_00000183228855221608969340000012075136704145392771_" cx="568.3788" cy="211.6121" r="141.2115" gradientUnits="userSpaceOnUse">
	<stop  offset="0" style="stop-color:#FFEF26"/>
	<stop  offset="0.0595" style="stop-color:#FFE000"/>
	<stop  offset="0.1303" style="stop-color:#FFD300"/>
	<stop  offset="0.2032" style="stop-color:#FECB00"/>
	<stop  offset="0.2809" style="stop-color:#FDC800"/>
	<stop  offset="0.6685" style="stop-color:#F18F34"/>
	<stop  offset="0.8876" style="stop-color:#E95F32"/>
	<stop  offset="1" style="stop-color:#E3312D"/>
</radialGradient>
<path style="fill:url(#SVGID_00000183228855221608969340000012075136704145392771_);" d="M585.57,204.08v-47.99h5.98l-5.98-6.01v-18
	l23.98,24.01v-24.01h12.02v72h-12.02v-29.99l-11.99-11.99v41.98H585.57z"/>
<radialGradient id="SVGID_00000089544373787035034470000008011541138739233440_" cx="568.3788" cy="211.6121" r="141.2115" gradientUnits="userSpaceOnUse">
	<stop  offset="0" style="stop-color:#FFEF26"/>
	<stop  offset="0.0595" style="stop-color:#FFE000"/>
	<stop  offset="0.1303" style="stop-color:#FFD300"/>
	<stop  offset="0.2032" style="stop-color:#FECB00"/>
	<stop  offset="0.2809" style="stop-color:#FDC800"/>
	<stop  offset="0.6685" style="stop-color:#F18F34"/>
	<stop  offset="0.8876" style="stop-color:#E95F32"/>
	<stop  offset="1" style="stop-color:#E3312D"/>
</radialGradient>
<path style="fill:url(#SVGID_00000089544373787035034470000008011541138739233440_);" d="M626.32,204.08V180.1h5.98l-5.98-6.01
	v-33.01l9-9h18l9,9v63H650.3V180.1h-11.99v23.98H626.32z M650.3,168.08V144.1h-11.99v23.98H650.3z"/>
<g>
	<path d="M902.76,130.58c-0.43,0.43-0.95,0.63-1.59,0.63c0.63,0-4.39-2.96-15.08-8.89c-10.69-5.92-19.52-8.89-26.5-8.89
		c-0.21,0-3.97,0.27-11.27,0.79c-7.3,0.53-11.16,0.79-11.58,0.79c-0.43,0-1.06,0.11-1.9,0.32c-0.85,0-1.48,0-1.9,0
		c-5.5,0-10.69-2.11-15.55-6.35c-0.85-0.63-1.27-1.69-1.27-3.17l3.17-20.63l-0.95-0.95c-3.39,2.54-5.5,6.67-6.35,12.38
		c-0.43,3.17-1.59,7.3-3.49,12.38h-13.01c0,0.43,0,0.74,0,0.95c0,1.48-1.11,2.75-3.33,3.81c-2.22,1.06-4.18,1.9-5.87,2.54
		l5.08,17.14c-0.43,0.85-0.69,1.43-0.79,1.75c-0.11,0.32-0.37,0.59-0.79,0.79c-0.43,0.21-0.85,0.32-1.27,0.32
		c-0.43,0-1.01-0.32-1.75-0.95c-0.74-0.63-1.32-0.95-1.75-0.95h-1.9c0.21,0.85,1.16,2.7,2.86,5.55c1.69,2.86,2.54,4.92,2.54,6.19
		c0,0.43,0,0.74,0,0.95c2.11,0.43,4.87,1.17,8.25,2.22c1.9,3.6,2.86,6.35,2.86,8.25c0,0.85-0.11,2.28-0.32,4.28
		c-0.21,2.01-0.32,3.55-0.32,4.6c0,1.48,0.1,2.75,0.32,3.81c0.84,2.97,2.86,7.73,6.03,14.28c3.38,7.41,5.82,11.11,7.3,11.11
		c0.21,0,0.58-0.1,1.11-0.32c0.53-0.21,1-0.32,1.43-0.32c8.46,0,12.7,6.46,12.7,19.36v0.32c0,4.66-0.43,7.93-1.27,9.84
		c-0.21,0.43-1.06,1.43-2.54,3.01c-1.48,1.59-2.22,2.7-2.22,3.33c0,7.83,1.69,17.04,5.08,27.61c1.27,0.63,2.96,1.48,5.08,2.54
		c2.96,1.7,4.44,4.55,4.44,8.57c0,9.31-2.97,17.35-8.89,24.12c-1.27,1.27-1.9,3.28-1.9,6.03v0.32l1.59,28.88
		c0.84-0.85,2.22-2.12,4.13-3.81c2.11,1.06,3.38,2.11,3.81,3.17c2.33,5.29,3.49,9.73,3.49,13.33c0,0.63-0.43,1.37-1.27,2.22h-3.49
		c-1.27-4.44-2.54-7.83-3.81-10.16c-1.27,0-2.28,1.43-3.01,4.29c-0.74,2.86-1.75,4.28-3.02,4.28s-2.33-1.38-3.17-4.13
		c-0.43-1.7-0.95-3.39-1.59-5.08c-1.27,0.21-2.06,1.32-2.38,3.33c-0.32,2.01-0.9,3.22-1.75,3.65h-2.22l-4.76-12.7
		c-1.7,3.17-4.34,7.93-7.94,14.28c-1.48-1.06-2.86-3.07-4.13-6.03c-0.85-2.33-1.7-4.76-2.54-7.3c-1.48,1.06-3.7,4.13-6.67,9.2h-2.54
		c-1.06-2.97-2.43-6.56-4.13-10.79l-7.93,11.74c-1.9-0.21-3.02-1.22-3.33-3.01c-0.32-1.8-0.58-3.44-0.79-4.92
		c-2.75,2.54-6.67,5.92-11.74,10.16c-1.9-1.9-4.55-4.24-7.94-6.98c-0.43,1.27-0.63,2.96-0.63,5.08c0,0.84,0,1.79,0,2.86
		c0,0.21-0.27,0.42-0.79,0.63c-0.53,0.21-0.9,0.42-1.11,0.63c-2.54-10.58-3.81-15.23-3.81-13.96c0-0.63,0.63-1.59,1.9-2.86
		c2.75,1.9,6.98,4.44,12.7,7.62l6.35-33.33c0-1.9-0.69-3.81-2.06-5.71c-1.38-1.9-2.06-3.39-2.06-4.44c0-3.17,1.27-8.25,3.81-15.23
		c1.48-1.27,3.17-3.38,5.08-6.35c0.84-3.38,1.27-8.78,1.27-16.19c0-1.27,0-2.59,0-3.97c0-1.37,0-2.11,0-2.22c0-0.1,0-0.37,0-0.79
		c0-0.42,0-0.74,0-0.95c0-0.63-0.74-1.9-2.22-3.81c-1.48-1.9-2.33-3.38-2.54-4.44c-0.85-3.81-1.27-6.03-1.27-6.67
		c0-2.75,0.74-5.08,2.22-6.98c1.9-2.75,3.17-4.97,3.81-6.67l-3.81-28.57c-0.21,0-0.43,0-0.63,0c-0.21,0-0.48,0-0.79,0
		s-0.69,0-1.11,0c-0.43,0-0.85,0-1.27,0c-1.7-2.11-2.54-5.4-2.54-9.84c0-3.38,0.42-5.71,1.27-6.98c1.69-2.96,2.64-4.76,2.86-5.4
		l-3.49-22.53l-5.4,6.67c-1.27-0.63-2.33-1.37-3.17-2.22c-3.39,3.39-8.73,10.31-16.03,20.79c-7.3,10.47-13.17,18.04-17.62,22.69
		c-12.49,13.54-21.69,26.66-27.61,39.36c-0.63,2.54-1.38,5.08-2.22,7.62c-0.85,3.39-2.22,5.4-4.13,6.03c0-1.69,0.1-4.23,0.32-7.62
		c0-3.6,0-5.5,0-5.71c0-2.96-0.85-9.52-2.54-19.68c-2.12-12.48-3.17-18.83-3.17-19.04c0-1.06,0.1-3.28,0.32-6.67l2.86-45.07
		c0-0.42,0-0.84,0-1.27c0-2.96-0.21-6.13-0.63-9.52c0-1.27-0.53-4.07-1.59-8.41c-1.06-4.33-1.59-6.61-1.59-6.82l7.62-10.79v-1.27
		c-0.21,0-0.43-0.1-0.63-0.32c-0.21-0.21-0.53-0.32-0.95-0.32c-0.43,0-2.33,1.59-5.71,4.76h-1.9c-0.43-0.42-0.63-1.06-0.63-1.9
		c0-4.02,3.38-13.22,10.16-27.61c6.35-13.54,9.94-20.52,10.79-20.95c7.4-2.75,17.88-7.09,31.42-13.01c1.27-1.27,3.12-2.75,5.55-4.44
		c2.43-1.69,5.34-3.17,8.73-4.44c10.58-4.44,18.93-6.67,25.07-6.67c1.27,0,3.38,0.69,6.35,2.06c2.96,1.38,4.44,2.7,4.44,3.97V47.1
		c0,2.33-1.7,8.47-5.08,18.41c10.79-12.7,19.94-21.37,27.45-26.03c7.51-4.65,16.45-6.98,26.82-6.98c0.42,0,2.33,0.53,5.71,1.59
		c3.38,1.06,5.29,1.59,5.71,1.59c0.42,0,0.95,0,1.59,0c0.42-0.21,0.95-0.32,1.59-0.32c7.4,0,16.5,5.71,27.3,17.14
		c8.25,9.1,15.66,22.75,22.22,40.94C895.03,105.93,898.95,118.31,902.76,130.58z M709.79,81.07v-1.9
		c-6.14,2.75-12.27,5.4-18.41,7.93c-6.98,3.39-10.69,6.77-11.11,10.16c1.27-0.21,2.43-0.32,3.49-0.32c3.6,0,5.4,1.27,5.4,3.81
		c0,0.43-1.22,2.81-3.65,7.14c-2.44,4.34-3.65,6.72-3.65,7.14v6.03c0-0.21,2.54-6.03,7.62-17.46c2.96-6.77,6.45-11.85,10.47-15.23
		c0.42-0.42,2.33-1.79,5.71-4.13C708.41,82.55,709.79,81.49,709.79,81.07z M702.49,158.83c-5.93,3.6-11.96,7.09-18.09,10.47
		c-1.9,1.06-2.86,4.34-2.86,9.84v2.22c0,11,1.37,20.74,4.13,29.2L702.49,158.83z M705.34,145.81c-4.44,1.27-9.21,3.6-14.28,6.98
		c-6.14,4.44-9.2,8.68-9.2,12.7v0.32h1.9c4.23-2.96,8.57-5.82,13.01-8.57c5.71-3.81,8.57-7.3,8.57-10.47
		C705.34,146.34,705.34,146.03,705.34,145.81z M718.99,93.13c0-0.84-0.79-1.9-2.38-3.17s-3.01-1.9-4.28-1.9
		c-8.89,0-16.4,9-22.54,26.98c-4.66,13.54-6.98,24.65-6.98,33.33c0,0.43,0.1,1.22,0.32,2.38c0.21,1.17,0.32,1.85,0.32,2.06
		c3.81-1.69,7.62-3.38,11.43-5.08c4.65-2.11,7.72-4.44,9.21-6.98c3.17-5.29,6.56-14.7,10.16-28.25
		C717.41,101.27,718.99,94.82,718.99,93.13z M712.33,72.81c-1.7-2.75-3.17-4.55-4.44-5.4c-4.44-3.17-7.94-4.76-10.47-4.76
		c-2.12,0-3.49,0.85-4.13,2.54c-2.33,4.24-5.5,11.11-9.52,20.63L712.33,72.81z M720.58,180.73l-14.92-11.11l-14.6,46.34
		c2.54-5.08,7.51-11.63,14.92-19.68C710.84,191.2,715.71,186.02,720.58,180.73z M748.19,67.42c0-15.44-2.43-23.59-7.3-24.44
		l-38.72,13.01c18.2,18.2,29.72,27.3,34.59,27.3c4.65,0,7.72-1.37,9.2-4.13C747.45,77.05,748.19,73.13,748.19,67.42z M761.52,96.93
		c0-2.96-1.59-5.24-4.76-6.82c-3.17-1.59-6.46-2.38-9.84-2.38c-2.33,0-6.08,0.69-11.27,2.06c-5.19,1.38-8.31,2.59-9.36,3.65
		c-3.6,2.97-6.14,6.67-7.62,11.11c-0.85,3.39-1.7,6.77-2.54,10.16c-2.33,6.56-4.24,15.13-5.71,25.71l-3.49,23.17
		c6.56,5.93,12.27,10.69,17.14,14.28c6.77-6.56,14.7-19.46,23.8-38.72C756.97,119.9,761.52,105.82,761.52,96.93z M728.51,85.83
		c-2.54-2.33-6.35-5.5-11.43-9.52c-2.12,2.12-3.49,4.24-4.13,6.35c5.5,3.6,8.67,5.4,9.52,5.4
		C721.21,88.05,723.22,87.31,728.51,85.83z M772.31,35.04c-1.27-1.9-3.28-2.86-6.03-2.86h-0.63c-1.7,0-4.66,0.74-8.89,2.22
		c-5.08,2.12-7.62,4.24-7.62,6.35c0,0.43,0.95,2.54,2.86,6.35L772.31,35.04z M771.04,50.91c-5.71,1.9-11.43,3.92-17.14,6.03
		l-2.54,25.39h4.13C762.47,75.57,767.66,65.09,771.04,50.91z M773.27,38.54c-6.35,4.02-13.33,8.78-20.95,14.28
		c4.65-1.48,11.32-3.6,20-6.35C772.52,44.57,772.84,41.92,773.27,38.54z M786.91,110.58l-18.73-8.25l-11.11,34.28
		c1.48-4.23,3.06-6.35,4.76-6.35c-0.21,0,1.59,2.12,5.4,6.35c0-1.27,0.63-3.54,1.9-6.82c1.27-3.28,2.64-4.92,4.13-4.92
		c-1.06,0,2.01,1.38,9.2,4.13l-2.54-15.23c0.42-2.11,2.54-3.17,6.35-3.17C786.49,110.58,786.7,110.58,786.91,110.58z M821.51,294.35
		c-4.44-2.54-9.31-3.81-14.6-3.81c-0.43,0-0.9,0-1.43,0c-0.53,0-0.9,0-1.11,0c-8.89,0-20.21,1.37-33.96,4.13
		c-2.12,2.96-3.6,7.4-4.44,13.33c-1.7,9.73-2.97,16.19-3.81,19.36c1.27-1.48,2.96-3.71,5.08-6.67h1.27c0.84,2.11,2.01,5.4,3.49,9.84
		c4.23-10.16,7.4-15.23,9.52-15.23h0.63l0.32,0.32c0.63,3.17,1.59,7.62,2.86,13.33h1.9c1.48-2.33,3.81-5.4,6.98-9.2
		c0.21,0.21,0.42,0.32,0.63,0.32h0.32c1.06,3.17,2.54,7.51,4.44,13.01c1.27-3.17,2.7-6.51,4.29-10s3.12-5.35,4.6-5.55
		c1.27,3.59,3.17,8.25,5.71,13.96c0.63-0.63,1.79-2.33,3.49-5.08c1.06-2.12,2.22-3.17,3.49-3.17h0.32V294.35z M847.85,108.68
		c-0.63-1.9-4.66-15.97-12.06-42.21l-4.44-0.95c-8.89,0-21.06,3.12-36.5,9.36c-15.45,6.24-26.03,9.47-31.74,9.68
		c1.27,3.17,2.96,7.41,5.08,12.7c13.75,4.44,22.85,6.67,27.29,6.67h9.21c1.06-4.23,3.06-10.05,6.03-17.46
		c2.96-5.29,5.92-7.93,8.89-7.93c3.38,0,5.08,2.65,5.08,7.93c0,0.43-0.53,3.23-1.59,8.41c-1.06,5.19-1.59,7.99-1.59,8.41
		c0,4.24,2.01,6.35,6.03,6.35c0.21,0,3.06-0.16,8.57-0.48C841.61,108.84,845.52,108.68,847.85,108.68z M784.69,148.35
		c-2.75-5.29-6.46-11.32-11.11-18.09c-0.21,2.75-0.43,5.61-0.63,8.57c-0.85,5.08-2.01,7.62-3.49,7.62c-0.43,0-2.33-2.11-5.71-6.35
		l4.44,19.68L784.69,148.35z M794.53,160.1c0-4.86-1.59-7.3-4.76-7.3c-2.97,0-7.88,3.07-14.76,9.2
		c-6.88,6.14-10.31,10.79-10.31,13.97c0,1.27,0.32,2.22,0.95,2.86c6.13-6.56,15.12-11.32,26.98-14.28
		C793.9,163.06,794.53,161.58,794.53,160.1z M830.08,267.06c-4.24-2.75-8.46-4.13-12.7-4.13c-9.1,0-20.1,1.7-33.01,5.08
		c-8.46,2.33-13.76,4.92-15.87,7.78c-2.12,2.86-3.17,7.03-3.17,12.54v2.22h4.44c-0.21,0,1.69-0.53,5.71-1.59
		c6.56-1.48,13.54-2.22,20.95-2.22h29.2L830.08,267.06z M809.13,41.39c-7.2,1.9-15.24,7.41-24.12,16.5
		c-6.56,7.2-13.01,14.39-19.36,21.58c8.25-3.17,20.42-7.51,36.5-13.01C805.32,56.31,807.65,47.95,809.13,41.39z M821.83,215.64
		c0-5.71-1.06-10.16-3.17-13.33c-4.24-0.63-6.14-0.95-5.71-0.95c-4.44,0-9.1,1.17-13.97,3.49c-12.49,5.93-20.95,11.43-25.39,16.5
		c-2.54,2.97-3.81,5.93-3.81,8.89c0,1.48,0.32,3.17,0.95,5.08h1.9c6.35-2.54,12.8-5.18,19.36-7.93c9.31-3.6,17.03-5.4,23.17-5.4
		c0.42,0,1.43,0.11,3.01,0.32c1.59,0.21,2.7,0.32,3.33,0.32c0-0.84,0-2.22,0-4.13C821.72,216.8,821.83,215.85,821.83,215.64z
		 M805.64,197.55c-2.54-5.92-6.35-14.39-11.43-25.39c-1.27-0.63-2.75-0.95-4.44-0.95c-2.33,0-8.46,2.75-18.41,8.25l3.17,33.96
		L805.64,197.55z M821.51,258.17c-0.85-6.56-2.54-16.08-5.08-28.57c-0.63-1.48-2.86-2.22-6.67-2.22c-4.24,0-10.05,1.59-17.46,4.76
		c-5.71,2.75-11.43,5.4-17.14,7.93c-1.48,3.17-2.22,6.14-2.22,8.89c0,1.27,0.16,3.28,0.48,6.03c0.32,2.75,0.48,4.76,0.48,6.03
		c0,2.12-0.32,3.81-0.95,5.08L821.51,258.17z M818.34,39.8c-0.21-0.42-0.74-1.06-1.59-1.9c-0.85,0.43-1.9,1.27-3.17,2.54
		c-1.48,5.93-3.49,14.07-6.03,24.44c0.42,0,1.37-0.21,2.86-0.63L818.34,39.8z M871.02,66.47v-1.9c-0.85-3.38-3.81-7.51-8.89-12.38
		c-4.44-4.02-8.25-6.82-11.43-8.41c-3.17-1.59-9.73-3.02-19.68-4.29c-7.2-1.06-9.95-1.59-8.25-1.59h-0.32
		c-1.7,5.29-4.02,13.54-6.98,24.76h4.44c0.42,0,2.22-0.32,5.4-0.95s4.97-0.95,5.4-0.95c5.29,0,12.01,1.54,20.15,4.6
		c8.14,3.07,11.69,4.6,10.63,4.6c0.63,0,2.22-0.53,4.76-1.59C868.8,67.31,870.39,66.68,871.02,66.47z M896.41,122.64
		c-5.93-9.73-11.85-19.46-17.77-29.2c-8.25-11.63-17.35-19.36-27.3-23.17c-5.29-2.11-8.04-3.17-8.25-3.17h-2.86l12.7,40.31
		c9.09,1.48,18.62,4.13,28.56,7.93c3.17,1.27,6.24,2.86,9.2,4.76c2.33,1.7,3.6,2.54,3.81,2.54H896.41z M888.16,100.11l-15.55-30.79
		c-0.85,0.43-2.01,1.01-3.49,1.75c-1.48,0.74-2.65,1.32-3.49,1.75C873.67,79.8,881.18,88.9,888.16,100.11z"/>
</g>
<radialGradient id="SVGID_00000002381375885382235440000002405421000927466407_" cx="568.3788" cy="211.6121" r="141.2115" gradientUnits="userSpaceOnUse">
	<stop  offset="0" style="stop-color:#FFEF26"/>
	<stop  offset="0.0595" style="stop-color:#FFE000"/>
	<stop  offset="0.1303" style="stop-color:#FFD300"/>
	<stop  offset="0.2032" style="stop-color:#FECB00"/>
	<stop  offset="0.2809" style="stop-color:#FDC800"/>
	<stop  offset="0.6685" style="stop-color:#F18F34"/>
	<stop  offset="0.8876" style="stop-color:#E95F32"/>
	<stop  offset="1" style="stop-color:#E3312D"/>
</radialGradient>
<path style="fill:url(#SVGID_00000002381375885382235440000002405421000927466407_);" d="M667.08,144.1v-24.01h11.99v11.99
	L667.08,144.1z"/>
<radialGradient id="SVGID_00000013889560878117942190000011460960143806088621_" cx="568.3788" cy="211.6121" r="141.2115" gradientUnits="userSpaceOnUse">
	<stop  offset="0" style="stop-color:#FFEF26"/>
	<stop  offset="0.0595" style="stop-color:#FFE000"/>
	<stop  offset="0.1303" style="stop-color:#FFD300"/>
	<stop  offset="0.2032" style="stop-color:#FECB00"/>
	<stop  offset="0.2809" style="stop-color:#FDC800"/>
	<stop  offset="0.6685" style="stop-color:#F18F34"/>
	<stop  offset="0.8876" style="stop-color:#E95F32"/>
	<stop  offset="1" style="stop-color:#E3312D"/>
</radialGradient>
<path style="fill:url(#SVGID_00000013889560878117942190000011460960143806088621_);" d="M692.87,204.08l-9-9.03v-5.99l11.99-12.02
	v15.01h11.99v-8.99l-23.98-23.99v-5.97h5.98l-5.98-6.01v-6.01l9-9h18l9,9v6.01l-12.02,11.99V144.1h-11.99v9l24.01,23.98v18l-9,9
	H692.87z"/>
<radialGradient id="SVGID_00000021108488687702589660000011762350565896323473_" cx="568.3788" cy="211.6121" r="141.2115" gradientUnits="userSpaceOnUse">
	<stop  offset="0" style="stop-color:#FFEF26"/>
	<stop  offset="0.0595" style="stop-color:#FFE000"/>
	<stop  offset="0.1303" style="stop-color:#FFD300"/>
	<stop  offset="0.2032" style="stop-color:#FECB00"/>
	<stop  offset="0.2809" style="stop-color:#FDC800"/>
	<stop  offset="0.6685" style="stop-color:#F18F34"/>
	<stop  offset="0.8876" style="stop-color:#E95F32"/>
	<stop  offset="1" style="stop-color:#E3312D"/>
</radialGradient>
<path style="fill:url(#SVGID_00000021108488687702589660000011762350565896323473_);" d="M577.77,296.07v-11.99h-2.99l-9-9V233.1
	h5.98l-5.98-6.01v-6.01l9-9h18l9,9v54l-9,9h-3.02v11.99H577.77z M589.76,269.1v-45h-11.99v32.98L589.76,269.1z"/>
<radialGradient id="SVGID_00000004540136497255696240000016977849332071322521_" cx="568.3788" cy="211.6121" r="141.2115" gradientUnits="userSpaceOnUse">
	<stop  offset="0" style="stop-color:#FFEF26"/>
	<stop  offset="0.0595" style="stop-color:#FFE000"/>
	<stop  offset="0.1303" style="stop-color:#FFD300"/>
	<stop  offset="0.2032" style="stop-color:#FECB00"/>
	<stop  offset="0.2809" style="stop-color:#FDC800"/>
	<stop  offset="0.6685" style="stop-color:#F18F34"/>
	<stop  offset="0.8876" style="stop-color:#E95F32"/>
	<stop  offset="1" style="stop-color:#E3312D"/>
</radialGradient>
<path style="fill:url(#SVGID_00000004540136497255696240000016977849332071322521_);" d="M615.44,284.08l-9-9v-63h11.99v53.97
	l-6.01,6.01h18v-59.98h12.02v63l-9,9H615.44z"/>
<radialGradient id="SVGID_00000093873944077771204520000006361846517444635809_" cx="568.3788" cy="211.6121" r="141.2115" gradientUnits="userSpaceOnUse">
	<stop  offset="0" style="stop-color:#FFEF26"/>
	<stop  offset="0.0595" style="stop-color:#FFE000"/>
	<stop  offset="0.1303" style="stop-color:#FFD300"/>
	<stop  offset="0.2032" style="stop-color:#FECB00"/>
	<stop  offset="0.2809" style="stop-color:#FDC800"/>
	<stop  offset="0.6685" style="stop-color:#F18F34"/>
	<stop  offset="0.8876" style="stop-color:#E95F32"/>
	<stop  offset="1" style="stop-color:#E3312D"/>
</radialGradient>
<path style="fill:url(#SVGID_00000093873944077771204520000006361846517444635809_);" d="M656.1,284.08l-9-9V233.1h5.98l-5.98-6.01
	v-6.01l9-9h27v12.02h-24.01v17.96h20.99l-11.99,12.02h-9v17.96h24.01v12.02H656.1z"/>
<radialGradient id="SVGID_00000139268472966796605410000008722345062598221205_" cx="568.3788" cy="211.6121" r="141.2115" gradientUnits="userSpaceOnUse">
	<stop  offset="0" style="stop-color:#FFEF26"/>
	<stop  offset="0.0595" style="stop-color:#FFE000"/>
	<stop  offset="0.1303" style="stop-color:#FFD300"/>
	<stop  offset="0.2032" style="stop-color:#FECB00"/>
	<stop  offset="0.2809" style="stop-color:#FDC800"/>
	<stop  offset="0.6685" style="stop-color:#F18F34"/>
	<stop  offset="0.8876" style="stop-color:#E95F32"/>
	<stop  offset="1" style="stop-color:#E3312D"/>
</radialGradient>
<path style="fill:url(#SVGID_00000139268472966796605410000008722345062598221205_);" d="M696.76,284.08l-9-9.03v-5.99l11.99-12.02
	v15.01h11.99v-8.99l-23.98-23.99v-5.97h5.98l-5.98-6.01v-6.01l9-9h18l9,9v6.01l-12.02,11.99V224.1h-11.99v9l24.01,23.98v18l-9,9
	H696.76z"/>
<radialGradient id="SVGID_00000144295827947735211370000012018791762840271521_" cx="568.3788" cy="211.6121" r="141.2115" gradientUnits="userSpaceOnUse">
	<stop  offset="0" style="stop-color:#FFEF26"/>
	<stop  offset="0.0595" style="stop-color:#FFE000"/>
	<stop  offset="0.1303" style="stop-color:#FFD300"/>
	<stop  offset="0.2032" style="stop-color:#FECB00"/>
	<stop  offset="0.2809" style="stop-color:#FDC800"/>
	<stop  offset="0.6685" style="stop-color:#F18F34"/>
	<stop  offset="0.8876" style="stop-color:#E95F32"/>
	<stop  offset="1" style="stop-color:#E3312D"/>
</radialGradient>
<path style="fill:url(#SVGID_00000144295827947735211370000012018791762840271521_);" d="M740.4,284.08v-54l6.01-5.98h-18v-12.02h36
	v12.02h-12.02v59.98H740.4z"/>
<radialGradient id="SVGID_00000165230087520816330320000016229803389946045597_" cx="580" cy="534.3333" r="419.0482" gradientUnits="userSpaceOnUse">
	<stop  offset="0" style="stop-color:#B3A400"/>
	<stop  offset="0.0168" style="stop-color:#B3A400"/>
</radialGradient>
<rect y="412.67" style="fill:url(#SVGID_00000165230087520816330320000016229803389946045597_);" width="1160" height="243.33"/>
</svg>
