<?xml version="1.0" encoding="utf-8"?>
<!-- Generator: Adobe Illustrator 27.3.1, SVG Export Plug-In . SVG Version: 6.00 Build 0)  -->
<svg version="1.1" id="Camada_1" xmlns="http://www.w3.org/2000/svg" xmlns:xlink="http://www.w3.org/1999/xlink" x="0px" y="0px"
	 viewBox="0 0 651.11 651.11" style="enable-background:new 0 0 651.11 651.11;" xml:space="preserve">
<style type="text/css">
	.st0{fill:url(#SVGID_1_);stroke:#000000;stroke-miterlimit:10;}
	.st1{display:none;}
	.st2{fill:url(#SVGID_00000099644252494643325310000011144039802888969089_);}
	.st3{fill:url(#SVGID_00000071530485611124464480000012684320682815017648_);}
	.st4{fill:url(#SVGID_00000125565621751582119120000001960962632356437650_);}
	.st5{fill:url(#SVGID_00000006687106998604738640000013712264384284182174_);}
	.st6{fill:url(#SVGID_00000017489960085390852830000010165426345299120825_);}
	.st7{fill:url(#SVGID_00000090987940367392953280000003797628868746939798_);}
	.st8{fill:url(#SVGID_00000037678258159397190800000001412034285724615836_);}
	.st9{fill:url(#SVGID_00000003104350687096975370000001128162333528827011_);}
	.st10{fill:url(#SVGID_00000117671453432474644490000014140041522689017788_);}
	.st11{fill:url(#SVGID_00000132073606119717534360000003169874748378827416_);}
	.st12{fill:url(#SVGID_00000149382353688086012160000010037731822148344725_);}
	.st13{fill:url(#SVGID_00000122718921007957278310000015935872992437268617_);}
	.st14{fill:url(#SVGID_00000014634537498305325830000013121586860523733153_);}
</style>
<radialGradient id="SVGID_1_" cx="311.3177" cy="235.0726" r="315.863" fx="345.0412" fy="84.6719" gradientTransform="matrix(1.0938 0 0 1.2382 -27.4371 35.1364)" gradientUnits="userSpaceOnUse">
	<stop  offset="0.4059" style="stop-color:#32A936"/>
	<stop  offset="0.4397" style="stop-color:#40AB36"/>
	<stop  offset="0.488" style="stop-color:#60B234"/>
	<stop  offset="0.5449" style="stop-color:#88BD31"/>
	<stop  offset="0.6084" style="stop-color:#B5CD2B"/>
	<stop  offset="0.6767" style="stop-color:#E6E126"/>
	<stop  offset="0.7068" style="stop-color:#FBEA24"/>
</radialGradient>
<rect x="1.9" y="-1.88" class="st0" width="651.11" height="651.11"/>
<rect x="832.93" y="-273.71" style="fill:none;" width="3.26" height="3.26"/>
<g class="st1">
</g>
<g class="st1">
</g>
<g>
	<path d="M18.19,95.76c6.56-18.2,13.96-31.84,22.22-40.94C51.2,43.39,60.3,37.68,67.7,37.68c0.63,0,1.17,0.11,1.59,0.32
		c0.63,0,1.17,0,1.59,0c0.43,0,2.33-0.53,5.71-1.59c3.39-1.06,5.29-1.59,5.71-1.59c10.37,0,19.31,2.33,26.82,6.98
		c7.51,4.66,16.66,13.33,27.45,26.03c-3.38-9.94-5.08-16.08-5.08-18.41V35.14c0-1.27,1.48-2.59,4.44-3.97
		c2.97-1.37,5.08-2.06,6.35-2.06c6.14,0,14.5,2.22,25.07,6.67c3.39,1.27,6.3,2.75,8.73,4.44c2.44,1.7,4.29,3.17,5.55,4.44
		c13.54,5.93,24.02,10.27,31.42,13.01c0.85,0.43,4.44,7.41,10.79,20.95c6.77,14.39,10.16,23.6,10.16,27.61
		c0,0.85-0.21,1.48-0.63,1.9h-1.9c-3.38-3.17-5.29-4.76-5.71-4.76c-0.42,0-0.74,0.11-0.95,0.32c-0.21,0.21-0.42,0.32-0.63,0.32v1.27
		l7.62,10.79c0,0.21-0.53,2.49-1.59,6.82c-1.06,4.34-1.59,7.14-1.59,8.41c-0.42,3.39-0.63,6.56-0.63,9.52c0,0.43,0,0.85,0,1.27
		l2.86,45.07c0.21,3.39,0.32,5.61,0.32,6.67c0,0.21-1.06,6.56-3.17,19.04c-1.69,10.16-2.54,16.72-2.54,19.68c0,0.21,0,2.12,0,5.71
		c0.21,3.39,0.32,5.93,0.32,7.62c-1.9-0.63-3.28-2.64-4.13-6.03c-0.84-2.54-1.59-5.08-2.22-7.62c-5.92-12.7-15.13-25.81-27.61-39.36
		c-4.44-4.65-10.32-12.22-17.62-22.69c-7.3-10.47-12.64-17.4-16.03-20.79c-0.84,0.85-1.91,1.59-3.17,2.22l-5.4-6.67l-3.49,22.53
		c0.21,0.63,1.17,2.44,2.86,5.4c0.85,1.27,1.27,3.6,1.27,6.98c0,4.44-0.84,7.73-2.54,9.84c-0.42,0-0.84,0-1.27,0
		c-0.42,0-0.79,0-1.11,0s-0.58,0-0.79,0c-0.21,0-0.42,0-0.63,0l-3.81,28.57c0.63,1.7,1.9,3.92,3.81,6.67
		c1.48,1.9,2.22,4.24,2.22,6.98c0,0.63-0.42,2.86-1.27,6.67c-0.21,1.06-1.06,2.54-2.54,4.44c-1.48,1.9-2.22,3.17-2.22,3.81
		c0,0.21,0,0.53,0,0.95c0,0.43,0,0.69,0,0.79c0,0.11,0,0.85,0,2.22c0,1.38,0,2.7,0,3.97c0,7.41,0.43,12.8,1.27,16.19
		c1.9,2.97,3.6,5.08,5.08,6.35c2.54,6.98,3.81,12.06,3.81,15.23c0,1.06-0.68,2.54-2.06,4.44c-1.37,1.9-2.06,3.81-2.06,5.71
		l6.35,33.33c5.71-3.17,9.95-5.71,12.7-7.62c1.27,1.27,1.9,2.22,1.9,2.86c0-1.27-1.27,3.38-3.81,13.96
		c-0.21-0.21-0.58-0.43-1.11-0.63c-0.53-0.21-0.79-0.43-0.79-0.63c0-1.06,0-2.01,0-2.86c0-2.12-0.21-3.81-0.63-5.08
		c-3.38,2.75-6.03,5.08-7.94,6.98c-5.08-4.24-8.99-7.62-11.74-10.16c-0.21,1.48-0.48,3.12-0.79,4.92c-0.32,1.79-1.43,2.8-3.33,3.01
		l-7.93-11.74c-1.69,4.23-3.06,7.83-4.13,10.79h-2.54c-2.96-5.08-5.18-8.15-6.67-9.2c-0.84,2.54-1.69,4.97-2.54,7.3
		c-1.27,2.96-2.64,4.97-4.13,6.03c-3.6-6.35-6.24-11.11-7.94-14.28l-4.76,12.7h-2.22c-0.84-0.43-1.43-1.64-1.75-3.65
		c-0.32-2.01-1.11-3.12-2.38-3.33c-0.63,1.69-1.16,3.38-1.59,5.08c-0.84,2.75-1.9,4.13-3.17,4.13s-2.27-1.43-3.02-4.28
		c-0.74-2.86-1.75-4.29-3.01-4.29c-1.27,2.33-2.54,5.71-3.81,10.16h-3.49c-0.84-0.85-1.27-1.59-1.27-2.22
		c0-3.6,1.17-8.04,3.49-13.33c0.43-1.06,1.7-2.12,3.81-3.17c1.9,1.69,3.28,2.96,4.13,3.81l1.59-28.88v-0.32
		c0-2.75-0.63-4.76-1.9-6.03c-5.92-6.77-8.89-14.81-8.89-24.12c0-4.02,1.48-6.87,4.44-8.57c2.12-1.06,3.81-1.9,5.08-2.54
		c3.39-10.58,5.08-19.78,5.08-27.61c0-0.63-0.74-1.75-2.22-3.33c-1.48-1.59-2.33-2.59-2.54-3.01c-0.84-1.9-1.27-5.18-1.27-9.84
		v-0.32c0-12.9,4.24-19.36,12.7-19.36c0.43,0,0.9,0.11,1.43,0.32c0.53,0.21,0.9,0.32,1.11,0.32c1.48,0,3.92-3.7,7.3-11.11
		c3.17-6.56,5.19-11.32,6.03-14.28c0.21-1.06,0.32-2.33,0.32-3.81c0-1.06-0.1-2.59-0.32-4.6c-0.21-2.01-0.32-3.44-0.32-4.28
		c0-1.9,0.95-4.65,2.86-8.25c3.39-1.06,6.14-1.8,8.25-2.22c0-0.21,0-0.53,0-0.95c0-1.27,0.85-3.33,2.54-6.19
		c1.7-2.86,2.65-4.71,2.86-5.55h-1.9c-0.42,0-1,0.32-1.75,0.95c-0.74,0.63-1.32,0.95-1.75,0.95c-0.42,0-0.84-0.1-1.27-0.32
		c-0.42-0.21-0.68-0.48-0.79-0.79c-0.1-0.32-0.37-0.9-0.79-1.75l5.08-17.14c-1.69-0.63-3.65-1.48-5.87-2.54
		c-2.22-1.06-3.33-2.33-3.33-3.81c0-0.21,0-0.53,0-0.95h-13.01c-1.9-5.08-3.06-9.2-3.49-12.38c-0.84-5.71-2.96-9.84-6.35-12.38
		l-0.95,0.95l3.17,20.63c0,1.48-0.42,2.54-1.27,3.17c-4.87,4.24-10.05,6.35-15.55,6.35c-0.42,0-1.06,0-1.9,0
		c-0.84-0.21-1.48-0.32-1.9-0.32c-0.42,0-4.29-0.26-11.58-0.79c-7.3-0.53-11.05-0.79-11.27-0.79c-6.98,0-15.81,2.97-26.5,8.89
		c-10.68,5.93-15.71,8.89-15.08,8.89c-0.63,0-1.16-0.21-1.59-0.63C10.26,120.63,14.17,108.25,18.19,95.76z M14.7,124.96
		c0.21,0,1.48-0.84,3.81-2.54c2.97-1.9,6.03-3.49,9.2-4.76c9.95-3.81,19.47-6.45,28.56-7.93l12.7-40.31h-2.86
		c-0.21,0-2.96,1.06-8.25,3.17c-9.94,3.81-19.04,11.54-27.3,23.17c-5.92,9.73-11.85,19.47-17.77,29.2H14.7z M43.58,75.13
		c-0.84-0.42-2.01-1-3.49-1.75c-1.48-0.74-2.64-1.32-3.49-1.75l-15.55,30.79C28.03,91.21,35.54,82.11,43.58,75.13z M42.95,70.69
		c2.54,1.06,4.13,1.59,4.76,1.59c-1.06,0,2.49-1.53,10.63-4.6c8.15-3.06,14.87-4.6,20.15-4.6c0.43,0,2.22,0.32,5.4,0.95
		c3.17,0.63,4.97,0.95,5.4,0.95h4.44c-2.96-11.21-5.29-19.46-6.98-24.76h-0.32c1.7,0-1.06,0.53-8.25,1.59
		c-9.94,1.27-16.5,2.7-19.68,4.29c-3.17,1.59-6.98,4.39-11.43,8.41c-5.08,4.87-8.04,9-8.89,12.38v1.9
		C38.82,69,40.41,69.63,42.95,70.69z M73.1,111.47c5.5,0.32,8.36,0.48,8.57,0.48c4.02,0,6.03-2.11,6.03-6.35
		c0-0.42-0.53-3.22-1.59-8.41c-1.06-5.18-1.59-7.98-1.59-8.41c0-5.29,1.7-7.93,5.08-7.93c2.97,0,5.93,2.65,8.89,7.93
		c2.97,7.41,4.97,13.23,6.03,17.46h9.21c4.44,0,13.54-2.22,27.29-6.67c2.12-5.29,3.81-9.52,5.08-12.7
		c-5.71-0.21-16.29-3.44-31.74-9.68c-15.44-6.24-27.61-9.36-36.5-9.36l-4.44,0.95c-7.4,26.24-11.43,40.31-12.06,42.21
		C63.69,111,67.6,111.15,73.1,111.47z M83.57,289.05h29.2c7.41,0,14.39,0.74,20.95,2.22c4.02,1.06,5.93,1.59,5.71,1.59h4.44v-2.22
		c0-5.5-1.06-9.68-3.17-12.54c-2.11-2.86-7.4-5.44-15.87-7.78c-12.9-3.38-23.91-5.08-33.01-5.08c-4.23,0-8.46,1.38-12.7,4.13
		L83.57,289.05z M87.7,220.81c0,1.9,0,3.28,0,4.13c0.63,0,1.75-0.1,3.33-0.32c1.59-0.21,2.59-0.32,3.01-0.32
		c6.14,0,13.86,1.8,23.17,5.4c6.56,2.75,13.01,5.4,19.36,7.93h1.9c0.63-1.9,0.95-3.6,0.95-5.08c0-2.96-1.27-5.92-3.81-8.89
		c-4.44-5.08-12.9-10.58-25.39-16.5c-4.87-2.33-9.52-3.49-13.97-3.49c0.43,0-1.48,0.32-5.71,0.95c-2.11,3.17-3.17,7.62-3.17,13.33
		C87.38,218.17,87.49,219.12,87.7,220.81z M136.26,268.42c-0.63-1.27-0.95-2.96-0.95-5.08c0-1.27,0.16-3.28,0.48-6.03
		c0.32-2.75,0.48-4.76,0.48-6.03c0-2.75-0.74-5.71-2.22-8.89c-5.71-2.54-11.43-5.18-17.14-7.93c-7.4-3.17-13.22-4.76-17.46-4.76
		c-3.81,0-6.03,0.74-6.67,2.22c-2.54,12.49-4.23,22.01-5.08,28.57L136.26,268.42z M87.7,325.55h0.32c1.27,0,2.44,1.06,3.49,3.17
		c1.7,2.75,2.86,4.44,3.49,5.08c2.54-5.71,4.44-10.37,5.71-13.96c1.48,0.21,3.02,2.06,4.6,5.55s3.02,6.82,4.29,10
		c1.9-5.5,3.39-9.84,4.44-13.01h0.32c0.21,0,0.43-0.11,0.63-0.32c3.17,3.81,5.5,6.87,6.98,9.2h1.9c1.27-5.71,2.22-10.16,2.86-13.33
		l0.32-0.32h0.63c2.12,0,5.29,5.08,9.52,15.23c1.48-4.44,2.65-7.73,3.49-9.84h1.27c2.12,2.96,3.81,5.18,5.08,6.67
		c-0.84-3.17-2.11-9.63-3.81-19.36c-0.84-5.93-2.33-10.37-4.44-13.33c-13.75-2.75-25.07-4.13-33.96-4.13c-0.21,0-0.58,0-1.11,0
		c-0.53,0-1,0-1.43,0c-5.29,0-10.16,1.27-14.6,3.81V325.55z M98.81,66.56c1.48,0.43,2.44,0.63,2.86,0.63
		c-2.54-10.36-4.55-18.51-6.03-24.44c-1.27-1.27-2.33-2.11-3.17-2.54c-0.84,0.85-1.37,1.48-1.59,1.9L98.81,66.56z M107.06,68.78
		c16.08,5.5,28.25,9.84,36.5,13.01c-6.35-7.19-12.8-14.39-19.36-21.58c-8.89-9.1-16.93-14.6-24.12-16.5
		C101.56,50.27,103.88,58.63,107.06,68.78z M134.67,215.73l3.17-33.96c-9.94-5.5-16.08-8.25-18.41-8.25c-1.69,0-3.17,0.32-4.44,0.95
		c-5.08,11-8.89,19.47-11.43,25.39L134.67,215.73z M116.58,166.86c11.85,2.97,20.84,7.73,26.98,14.28c0.63-0.63,0.95-1.59,0.95-2.86
		c0-3.17-3.44-7.83-10.31-13.97c-6.87-6.13-11.79-9.2-14.76-9.2c-3.17,0-4.76,2.44-4.76,7.3
		C114.68,163.9,115.31,165.38,116.58,166.86z M122.93,112.9c3.81,0,5.93,1.06,6.35,3.17l-2.54,15.23c7.2-2.75,10.27-4.13,9.2-4.13
		c1.48,0,2.86,1.64,4.13,4.92c1.27,3.28,1.9,5.55,1.9,6.82c3.81-4.23,5.61-6.35,5.4-6.35c1.7,0,3.28,2.12,4.76,6.35l-11.11-34.28
		l-18.73,8.25C122.51,112.9,122.72,112.9,122.93,112.9z M141.02,162.1l4.44-19.68c-3.38,4.24-5.29,6.35-5.71,6.35
		c-1.48,0-2.64-2.54-3.49-7.62c-0.21-2.96-0.42-5.82-0.63-8.57c-4.65,6.77-8.36,12.8-11.11,18.09L141.02,162.1z M136.89,48.79
		c8.68,2.75,15.34,4.87,20,6.35c-7.62-5.5-14.6-10.26-20.95-14.28C136.37,44.24,136.69,46.88,136.89,48.79z M157.21,49.42
		c1.91-3.81,2.86-5.92,2.86-6.35c0-2.11-2.54-4.23-7.62-6.35c-4.23-1.48-7.19-2.22-8.89-2.22h-0.63c-2.75,0-4.76,0.95-6.03,2.86
		L157.21,49.42z M153.71,84.65h4.13l-2.54-25.39c-5.71-2.11-11.43-4.13-17.14-6.03C141.55,67.41,146.73,77.88,153.71,84.65z
		 M161.33,141.47c9.1,19.26,17.03,32.17,23.8,38.72c4.87-3.6,10.58-8.36,17.14-14.28l-3.49-23.17c-1.48-10.58-3.38-19.15-5.71-25.71
		c-0.84-3.38-1.69-6.77-2.54-10.16c-1.48-4.44-4.02-8.14-7.62-11.11c-1.06-1.06-4.18-2.27-9.36-3.65
		c-5.18-1.37-8.94-2.06-11.27-2.06c-3.38,0-6.67,0.79-9.84,2.38c-3.17,1.59-4.76,3.86-4.76,6.82
		C147.68,108.14,152.24,122.21,161.33,141.47z M163.24,81.48c1.48,2.75,4.55,4.13,9.2,4.13c4.87,0,16.4-9.1,34.59-27.3L168.32,45.3
		c-4.87,0.85-7.3,9-7.3,24.44C161.02,75.45,161.76,79.37,163.24,81.48z M186.72,90.37c0.85,0,4.02-1.79,9.52-5.4
		c-0.63-2.11-2.01-4.23-4.13-6.35c-5.08,4.02-8.89,7.2-11.43,9.52C185.98,89.63,187.99,90.37,186.72,90.37z M203.23,198.6
		c7.41,8.04,12.38,14.6,14.92,19.68l-14.6-46.34l-14.92,11.11C193.5,188.33,198.36,193.52,203.23,198.6z M194.98,114.8
		c3.6,13.54,6.98,22.96,10.16,28.25c1.48,2.54,4.55,4.87,9.21,6.98c3.81,1.7,7.62,3.39,11.43,5.08c0-0.21,0.11-0.9,0.32-2.06
		c0.21-1.16,0.32-1.95,0.32-2.38c0-8.67-2.33-19.78-6.98-33.33c-6.13-17.98-13.65-26.98-22.54-26.98c-1.27,0-2.7,0.63-4.28,1.9
		s-2.38,2.33-2.38,3.17C190.21,97.14,191.8,103.59,194.98,114.8z M225.45,88.14c-4.02-9.52-7.19-16.4-9.52-20.63
		c-0.63-1.69-2.01-2.54-4.13-2.54c-2.54,0-6.03,1.59-10.47,4.76c-1.27,0.85-2.75,2.65-4.44,5.4L225.45,88.14z M203.54,86.56
		c3.39,2.33,5.29,3.7,5.71,4.13c4.02,3.39,7.51,8.47,10.47,15.23c5.08,11.43,7.62,17.25,7.62,17.46v-6.03c0-0.42-1.21-2.8-3.65-7.14
		c-2.43-4.33-3.65-6.71-3.65-7.14c0-2.54,1.8-3.81,5.4-3.81c1.06,0,2.22,0.11,3.49,0.32c-0.42-3.38-4.13-6.77-11.11-10.16
		c-6.13-2.54-12.27-5.18-18.41-7.93v1.9C199.42,83.81,200.8,84.87,203.54,86.56z M203.86,149.08c0,3.17,2.86,6.67,8.57,10.47
		c4.44,2.75,8.78,5.61,13.01,8.57h1.9v-0.32c0-4.02-3.06-8.25-9.2-12.7c-5.08-3.38-9.84-5.71-14.28-6.98
		C203.86,148.34,203.86,148.66,203.86,149.08z M223.54,212.88c2.75-8.46,4.13-18.2,4.13-29.2v-2.22c0-5.5-0.95-8.78-2.86-9.84
		c-6.13-3.38-12.17-6.87-18.09-10.47L223.54,212.88z"/>
</g>
<radialGradient id="SVGID_00000076589729260940725480000008608766072175607479_" cx="313.936" cy="209.1692" r="141.2115" gradientUnits="userSpaceOnUse">
	<stop  offset="0" style="stop-color:#FFEF26"/>
	<stop  offset="0.0595" style="stop-color:#FFE000"/>
	<stop  offset="0.1303" style="stop-color:#FFD300"/>
	<stop  offset="0.2032" style="stop-color:#FECB00"/>
	<stop  offset="0.2809" style="stop-color:#FDC800"/>
	<stop  offset="0.6685" style="stop-color:#F18F34"/>
	<stop  offset="0.8876" style="stop-color:#E95F32"/>
	<stop  offset="1" style="stop-color:#E3312D"/>
</radialGradient>
<path style="fill:url(#SVGID_00000076589729260940725480000008608766072175607479_);" d="M168.2,201.64v-29.99l5.98-6.01h-5.98v-36
	h27l9,9v15.01l-7.52,7.49l7.52,7.52v23.98l-9,9H168.2z M180.19,159.66l11.99-12.02v-5.98h-11.99V159.66z M192.17,189.61V174.6
	l-4.5-4.5l-7.49,7.52v11.99H192.17z"/>
<radialGradient id="SVGID_00000013899516234463446230000016274405027083272338_" cx="313.936" cy="209.1692" r="141.2115" gradientUnits="userSpaceOnUse">
	<stop  offset="0" style="stop-color:#FFEF26"/>
	<stop  offset="0.0595" style="stop-color:#FFE000"/>
	<stop  offset="0.1303" style="stop-color:#FFD300"/>
	<stop  offset="0.2032" style="stop-color:#FECB00"/>
	<stop  offset="0.2809" style="stop-color:#FDC800"/>
	<stop  offset="0.6685" style="stop-color:#F18F34"/>
	<stop  offset="0.8876" style="stop-color:#E95F32"/>
	<stop  offset="1" style="stop-color:#E3312D"/>
</radialGradient>
<path style="fill:url(#SVGID_00000013899516234463446230000016274405027083272338_);" d="M208.86,201.64v-23.98h5.98l-5.98-6.01
	v-33.01l9-9h18l9,9v63h-12.02v-23.98h-11.99v23.98H208.86z M232.83,165.64v-23.98h-11.99v23.98H232.83z"/>
<radialGradient id="SVGID_00000168097371941803030930000011754989075311435649_" cx="313.936" cy="209.1692" r="141.2115" gradientUnits="userSpaceOnUse">
	<stop  offset="0" style="stop-color:#FFEF26"/>
	<stop  offset="0.0595" style="stop-color:#FFE000"/>
	<stop  offset="0.1303" style="stop-color:#FFD300"/>
	<stop  offset="0.2032" style="stop-color:#FECB00"/>
	<stop  offset="0.2809" style="stop-color:#FDC800"/>
	<stop  offset="0.6685" style="stop-color:#F18F34"/>
	<stop  offset="0.8876" style="stop-color:#E95F32"/>
	<stop  offset="1" style="stop-color:#E3312D"/>
</radialGradient>
<path style="fill:url(#SVGID_00000168097371941803030930000011754989075311435649_);" d="M249.62,201.64v-47.99h5.98l-5.98-6.01v-18
	l23.98,24.01v-24.01h12.02v72h-12.02v-29.99l-11.99-11.99v41.98H249.62z"/>
<radialGradient id="SVGID_00000099661465828200587390000004060263503964785071_" cx="313.936" cy="209.1692" r="141.2115" gradientUnits="userSpaceOnUse">
	<stop  offset="0" style="stop-color:#FFEF26"/>
	<stop  offset="0.0595" style="stop-color:#FFE000"/>
	<stop  offset="0.1303" style="stop-color:#FFD300"/>
	<stop  offset="0.2032" style="stop-color:#FECB00"/>
	<stop  offset="0.2809" style="stop-color:#FDC800"/>
	<stop  offset="0.6685" style="stop-color:#F18F34"/>
	<stop  offset="0.8876" style="stop-color:#E95F32"/>
	<stop  offset="1" style="stop-color:#E3312D"/>
</radialGradient>
<path style="fill:url(#SVGID_00000099661465828200587390000004060263503964785071_);" d="M290.37,201.64v-23.98h5.98l-5.98-6.01
	v-33.01l9-9h18l9,9v63h-12.02v-23.98h-11.99v23.98H290.37z M314.34,165.64v-23.98h-11.99v23.98H314.34z"/>
<radialGradient id="SVGID_00000093884901866695358220000004814996206761866940_" cx="313.936" cy="209.1692" r="141.2115" gradientUnits="userSpaceOnUse">
	<stop  offset="0" style="stop-color:#FFEF26"/>
	<stop  offset="0.0595" style="stop-color:#FFE000"/>
	<stop  offset="0.1303" style="stop-color:#FFD300"/>
	<stop  offset="0.2032" style="stop-color:#FECB00"/>
	<stop  offset="0.2809" style="stop-color:#FDC800"/>
	<stop  offset="0.6685" style="stop-color:#F18F34"/>
	<stop  offset="0.8876" style="stop-color:#E95F32"/>
	<stop  offset="1" style="stop-color:#E3312D"/>
</radialGradient>
<path style="fill:url(#SVGID_00000093884901866695358220000004814996206761866940_);" d="M331.13,201.64v-47.99h5.98l-5.98-6.01v-18
	l23.98,24.01v-24.01h12.02v72H355.1v-29.99l-11.99-11.99v41.98H331.13z"/>
<radialGradient id="SVGID_00000003825905866424056120000008567381333606296987_" cx="313.936" cy="209.1692" r="141.2115" gradientUnits="userSpaceOnUse">
	<stop  offset="0" style="stop-color:#FFEF26"/>
	<stop  offset="0.0595" style="stop-color:#FFE000"/>
	<stop  offset="0.1303" style="stop-color:#FFD300"/>
	<stop  offset="0.2032" style="stop-color:#FECB00"/>
	<stop  offset="0.2809" style="stop-color:#FDC800"/>
	<stop  offset="0.6685" style="stop-color:#F18F34"/>
	<stop  offset="0.8876" style="stop-color:#E95F32"/>
	<stop  offset="1" style="stop-color:#E3312D"/>
</radialGradient>
<path style="fill:url(#SVGID_00000003825905866424056120000008567381333606296987_);" d="M371.88,201.64v-23.98h5.98l-5.98-6.01
	v-33.01l9-9h18l9,9v63h-12.02v-23.98h-11.99v23.98H371.88z M395.86,165.64v-23.98h-11.99v23.98H395.86z"/>
<g>
	<path d="M648.32,128.14c-0.43,0.43-0.95,0.63-1.59,0.63c0.63,0-4.39-2.96-15.08-8.89c-10.69-5.92-19.52-8.89-26.5-8.89
		c-0.21,0-3.97,0.27-11.27,0.79c-7.3,0.53-11.16,0.79-11.58,0.79c-0.43,0-1.06,0.11-1.9,0.32c-0.85,0-1.48,0-1.9,0
		c-5.5,0-10.69-2.11-15.55-6.35c-0.85-0.63-1.27-1.69-1.27-3.17l3.17-20.63l-0.95-0.95c-3.39,2.54-5.5,6.67-6.35,12.38
		c-0.43,3.17-1.59,7.3-3.49,12.38h-13.01c0,0.43,0,0.74,0,0.95c0,1.48-1.11,2.75-3.33,3.81c-2.22,1.06-4.18,1.9-5.87,2.54
		l5.08,17.14c-0.43,0.85-0.69,1.43-0.79,1.75c-0.11,0.32-0.37,0.59-0.79,0.79c-0.43,0.21-0.85,0.32-1.27,0.32
		c-0.43,0-1.01-0.32-1.75-0.95c-0.74-0.63-1.32-0.95-1.75-0.95h-1.9c0.21,0.85,1.16,2.7,2.86,5.55c1.69,2.86,2.54,4.92,2.54,6.19
		c0,0.43,0,0.74,0,0.95c2.11,0.43,4.87,1.17,8.25,2.22c1.9,3.6,2.86,6.35,2.86,8.25c0,0.85-0.11,2.28-0.32,4.28
		c-0.21,2.01-0.32,3.55-0.32,4.6c0,1.48,0.1,2.75,0.32,3.81c0.84,2.97,2.86,7.73,6.03,14.28c3.38,7.41,5.82,11.11,7.3,11.11
		c0.21,0,0.58-0.1,1.11-0.32c0.53-0.21,1-0.32,1.43-0.32c8.46,0,12.7,6.46,12.7,19.36v0.32c0,4.66-0.43,7.93-1.27,9.84
		c-0.21,0.43-1.06,1.43-2.54,3.01c-1.48,1.59-2.22,2.7-2.22,3.33c0,7.83,1.69,17.04,5.08,27.61c1.27,0.63,2.96,1.48,5.08,2.54
		c2.96,1.7,4.44,4.55,4.44,8.57c0,9.31-2.97,17.35-8.89,24.12c-1.27,1.27-1.9,3.28-1.9,6.03v0.32l1.59,28.88
		c0.84-0.85,2.22-2.12,4.13-3.81c2.11,1.06,3.38,2.11,3.81,3.17c2.33,5.29,3.49,9.73,3.49,13.33c0,0.63-0.43,1.37-1.27,2.22h-3.49
		c-1.27-4.44-2.54-7.83-3.81-10.16c-1.27,0-2.28,1.43-3.01,4.29c-0.74,2.86-1.75,4.28-3.02,4.28s-2.33-1.38-3.17-4.13
		c-0.43-1.7-0.95-3.39-1.59-5.08c-1.27,0.21-2.06,1.32-2.38,3.33c-0.32,2.01-0.9,3.22-1.75,3.65h-2.22l-4.76-12.7
		c-1.7,3.17-4.34,7.93-7.94,14.28c-1.48-1.06-2.86-3.07-4.13-6.03c-0.85-2.33-1.7-4.76-2.54-7.3c-1.48,1.06-3.7,4.13-6.67,9.2h-2.54
		c-1.06-2.97-2.43-6.56-4.13-10.79l-7.93,11.74c-1.9-0.21-3.02-1.22-3.33-3.01c-0.32-1.8-0.58-3.44-0.79-4.92
		c-2.75,2.54-6.67,5.92-11.74,10.16c-1.9-1.9-4.55-4.24-7.94-6.98c-0.43,1.27-0.63,2.96-0.63,5.08c0,0.84,0,1.79,0,2.86
		c0,0.21-0.27,0.42-0.79,0.63c-0.53,0.21-0.9,0.42-1.11,0.63c-2.54-10.58-3.81-15.23-3.81-13.96c0-0.63,0.63-1.59,1.9-2.86
		c2.75,1.9,6.98,4.44,12.7,7.62l6.35-33.33c0-1.9-0.69-3.81-2.06-5.71c-1.38-1.9-2.06-3.39-2.06-4.44c0-3.17,1.27-8.25,3.81-15.23
		c1.48-1.27,3.17-3.38,5.08-6.35c0.84-3.38,1.27-8.78,1.27-16.19c0-1.27,0-2.59,0-3.97c0-1.37,0-2.11,0-2.22c0-0.1,0-0.37,0-0.79
		c0-0.42,0-0.74,0-0.95c0-0.63-0.74-1.9-2.22-3.81c-1.48-1.9-2.33-3.38-2.54-4.44c-0.85-3.81-1.27-6.03-1.27-6.67
		c0-2.75,0.74-5.08,2.22-6.98c1.9-2.75,3.17-4.97,3.81-6.67l-3.81-28.57c-0.21,0-0.43,0-0.63,0c-0.21,0-0.48,0-0.79,0
		s-0.69,0-1.11,0c-0.43,0-0.85,0-1.27,0c-1.7-2.11-2.54-5.4-2.54-9.84c0-3.38,0.42-5.71,1.27-6.98c1.69-2.96,2.64-4.76,2.86-5.4
		l-3.49-22.53l-5.4,6.67c-1.27-0.63-2.33-1.37-3.17-2.22c-3.39,3.39-8.73,10.31-16.03,20.79c-7.3,10.47-13.17,18.04-17.62,22.69
		c-12.49,13.54-21.69,26.66-27.61,39.36c-0.63,2.54-1.38,5.08-2.22,7.62c-0.85,3.39-2.22,5.4-4.13,6.03c0-1.69,0.1-4.23,0.32-7.62
		c0-3.6,0-5.5,0-5.71c0-2.96-0.85-9.52-2.54-19.68c-2.12-12.48-3.17-18.83-3.17-19.04c0-1.06,0.1-3.28,0.32-6.67l2.86-45.07
		c0-0.42,0-0.84,0-1.27c0-2.96-0.21-6.13-0.63-9.52c0-1.27-0.53-4.07-1.59-8.41c-1.06-4.33-1.59-6.61-1.59-6.82l7.62-10.79v-1.27
		c-0.21,0-0.43-0.1-0.63-0.32c-0.21-0.21-0.53-0.32-0.95-0.32c-0.43,0-2.33,1.59-5.71,4.76h-1.9c-0.43-0.42-0.63-1.06-0.63-1.9
		c0-4.02,3.38-13.22,10.16-27.61c6.35-13.54,9.94-20.52,10.79-20.95c7.4-2.75,17.88-7.09,31.42-13.01c1.27-1.27,3.12-2.75,5.55-4.44
		c2.43-1.69,5.34-3.17,8.73-4.44c10.58-4.44,18.93-6.67,25.07-6.67c1.27,0,3.38,0.69,6.35,2.06c2.96,1.38,4.44,2.7,4.44,3.97v14.28
		c0,2.33-1.7,8.47-5.08,18.41c10.79-12.7,19.94-21.37,27.45-26.03c7.51-4.65,16.45-6.98,26.82-6.98c0.42,0,2.33,0.53,5.71,1.59
		c3.38,1.06,5.29,1.59,5.71,1.59c0.42,0,0.95,0,1.59,0c0.42-0.21,0.95-0.32,1.59-0.32c7.4,0,16.5,5.71,27.3,17.14
		c8.25,9.1,15.66,22.75,22.22,40.94C640.59,103.49,644.51,115.87,648.32,128.14z M455.35,78.62v-1.9
		c-6.14,2.75-12.27,5.4-18.41,7.93c-6.98,3.39-10.69,6.77-11.11,10.16c1.27-0.21,2.43-0.32,3.49-0.32c3.6,0,5.4,1.27,5.4,3.81
		c0,0.43-1.22,2.81-3.65,7.14c-2.44,4.34-3.65,6.72-3.65,7.14v6.03c0-0.21,2.54-6.03,7.62-17.46c2.96-6.77,6.45-11.85,10.47-15.23
		c0.42-0.42,2.33-1.79,5.71-4.13C453.97,80.11,455.35,79.05,455.35,78.62z M448.05,156.38c-5.93,3.6-11.96,7.09-18.09,10.47
		c-1.9,1.06-2.86,4.34-2.86,9.84v2.22c0,11,1.37,20.74,4.13,29.2L448.05,156.38z M450.9,143.37c-4.44,1.27-9.21,3.6-14.28,6.98
		c-6.14,4.44-9.2,8.68-9.2,12.7v0.32h1.9c4.23-2.96,8.57-5.82,13.01-8.57c5.71-3.81,8.57-7.3,8.57-10.47
		C450.9,143.9,450.9,143.58,450.9,143.37z M464.55,90.68c0-0.84-0.79-1.9-2.38-3.17s-3.01-1.9-4.28-1.9c-8.89,0-16.4,9-22.54,26.98
		c-4.66,13.54-6.98,24.65-6.98,33.33c0,0.43,0.1,1.22,0.32,2.38c0.21,1.17,0.32,1.85,0.32,2.06c3.81-1.69,7.62-3.38,11.43-5.08
		c4.65-2.11,7.72-4.44,9.21-6.98c3.17-5.29,6.56-14.7,10.16-28.25C462.96,98.83,464.55,92.38,464.55,90.68z M457.88,70.37
		c-1.7-2.75-3.17-4.55-4.44-5.4c-4.44-3.17-7.94-4.76-10.47-4.76c-2.12,0-3.49,0.85-4.13,2.54c-2.33,4.24-5.5,11.11-9.52,20.63
		L457.88,70.37z M466.14,178.28l-14.92-11.11l-14.6,46.34c2.54-5.08,7.51-11.63,14.92-19.68
		C456.4,188.76,461.27,183.57,466.14,178.28z M493.75,64.98c0-15.44-2.43-23.59-7.3-24.44l-38.72,13.01
		c18.2,18.2,29.72,27.3,34.59,27.3c4.65,0,7.72-1.37,9.2-4.13C493.01,74.61,493.75,70.69,493.75,64.98z M507.08,94.49
		c0-2.96-1.59-5.24-4.76-6.82c-3.17-1.59-6.46-2.38-9.84-2.38c-2.33,0-6.08,0.69-11.27,2.06c-5.19,1.38-8.31,2.59-9.36,3.65
		c-3.6,2.97-6.14,6.67-7.62,11.11c-0.85,3.39-1.7,6.77-2.54,10.16c-2.33,6.56-4.24,15.13-5.71,25.71l-3.49,23.17
		c6.56,5.93,12.27,10.69,17.14,14.28c6.77-6.56,14.7-19.46,23.8-38.72C502.53,117.45,507.08,103.38,507.08,94.49z M474.07,83.38
		c-2.54-2.33-6.35-5.5-11.43-9.52c-2.12,2.12-3.49,4.24-4.13,6.35c5.5,3.6,8.67,5.4,9.52,5.4C466.77,85.6,468.78,84.87,474.07,83.38
		z M517.87,32.6c-1.27-1.9-3.28-2.86-6.03-2.86h-0.63c-1.7,0-4.66,0.74-8.89,2.22c-5.08,2.12-7.62,4.24-7.62,6.35
		c0,0.43,0.95,2.54,2.86,6.35L517.87,32.6z M516.6,48.47c-5.71,1.9-11.43,3.92-17.14,6.03l-2.54,25.39h4.13
		C508.03,73.12,513.21,62.65,516.6,48.47z M518.82,36.09c-6.35,4.02-13.33,8.78-20.95,14.28c4.65-1.48,11.32-3.6,20-6.35
		C518.08,42.12,518.4,39.48,518.82,36.09z M532.47,108.14l-18.73-8.25l-11.11,34.28c1.48-4.23,3.06-6.35,4.76-6.35
		c-0.21,0,1.59,2.12,5.4,6.35c0-1.27,0.63-3.54,1.9-6.82c1.27-3.28,2.64-4.92,4.13-4.92c-1.06,0,2.01,1.38,9.2,4.13l-2.54-15.23
		c0.42-2.11,2.54-3.17,6.35-3.17C532.04,108.14,532.26,108.14,532.47,108.14z M567.07,291.91c-4.44-2.54-9.31-3.81-14.6-3.81
		c-0.43,0-0.9,0-1.43,0c-0.53,0-0.9,0-1.11,0c-8.89,0-20.21,1.37-33.96,4.13c-2.12,2.96-3.6,7.4-4.44,13.33
		c-1.7,9.73-2.97,16.19-3.81,19.36c1.27-1.48,2.96-3.71,5.08-6.67h1.27c0.84,2.11,2.01,5.4,3.49,9.84
		c4.23-10.16,7.4-15.23,9.52-15.23h0.63l0.32,0.32c0.63,3.17,1.59,7.62,2.86,13.33h1.9c1.48-2.33,3.81-5.4,6.98-9.2
		c0.21,0.21,0.42,0.32,0.63,0.32h0.32c1.06,3.17,2.54,7.51,4.44,13.01c1.27-3.17,2.7-6.51,4.29-10s3.12-5.35,4.6-5.55
		c1.27,3.59,3.17,8.25,5.71,13.96c0.63-0.63,1.79-2.33,3.49-5.08c1.06-2.12,2.22-3.17,3.49-3.17h0.32V291.91z M593.41,106.24
		c-0.63-1.9-4.66-15.97-12.06-42.21l-4.44-0.95c-8.89,0-21.06,3.12-36.5,9.36c-15.45,6.24-26.03,9.47-31.74,9.68
		c1.27,3.17,2.96,7.41,5.08,12.7c13.75,4.44,22.85,6.67,27.29,6.67h9.21c1.06-4.23,3.06-10.05,6.03-17.46
		c2.96-5.29,5.92-7.93,8.89-7.93c3.38,0,5.08,2.65,5.08,7.93c0,0.43-0.53,3.23-1.59,8.41c-1.06,5.19-1.59,7.99-1.59,8.41
		c0,4.24,2.01,6.35,6.03,6.35c0.21,0,3.06-0.16,8.57-0.48C587.17,106.39,591.08,106.24,593.41,106.24z M530.25,145.91
		c-2.75-5.29-6.46-11.32-11.11-18.09c-0.21,2.75-0.43,5.61-0.63,8.57c-0.85,5.08-2.01,7.62-3.49,7.62c-0.43,0-2.33-2.11-5.71-6.35
		l4.44,19.68L530.25,145.91z M540.09,157.65c0-4.86-1.59-7.3-4.76-7.3c-2.97,0-7.88,3.07-14.76,9.2
		c-6.88,6.14-10.31,10.79-10.31,13.97c0,1.27,0.32,2.22,0.95,2.86c6.13-6.56,15.12-11.32,26.98-14.28
		C539.45,160.62,540.09,159.14,540.09,157.65z M575.64,264.61c-4.24-2.75-8.46-4.13-12.7-4.13c-9.1,0-20.1,1.7-33.01,5.08
		c-8.46,2.33-13.76,4.92-15.87,7.78c-2.12,2.86-3.17,7.03-3.17,12.54v2.22h4.44c-0.21,0,1.69-0.53,5.71-1.59
		c6.56-1.48,13.54-2.22,20.95-2.22h29.2L575.64,264.61z M554.69,38.95c-7.2,1.9-15.24,7.41-24.12,16.5
		c-6.56,7.2-13.01,14.39-19.36,21.58c8.25-3.17,20.42-7.51,36.5-13.01C550.88,53.87,553.2,45.51,554.69,38.95z M567.38,213.2
		c0-5.71-1.06-10.16-3.17-13.33c-4.24-0.63-6.14-0.95-5.71-0.95c-4.44,0-9.1,1.17-13.97,3.49c-12.49,5.93-20.95,11.43-25.39,16.5
		c-2.54,2.97-3.81,5.93-3.81,8.89c0,1.48,0.32,3.17,0.95,5.08h1.9c6.35-2.54,12.8-5.18,19.36-7.93c9.31-3.6,17.03-5.4,23.17-5.4
		c0.42,0,1.43,0.11,3.01,0.32c1.59,0.21,2.7,0.32,3.33,0.32c0-0.84,0-2.22,0-4.13C567.27,214.36,567.38,213.41,567.38,213.2z
		 M551.2,195.1c-2.54-5.92-6.35-14.39-11.43-25.39c-1.27-0.63-2.75-0.95-4.44-0.95c-2.33,0-8.46,2.75-18.41,8.25l3.17,33.96
		L551.2,195.1z M567.07,255.73c-0.85-6.56-2.54-16.08-5.08-28.57c-0.63-1.48-2.86-2.22-6.67-2.22c-4.24,0-10.05,1.59-17.46,4.76
		c-5.71,2.75-11.43,5.4-17.14,7.93c-1.48,3.17-2.22,6.14-2.22,8.89c0,1.27,0.16,3.28,0.48,6.03c0.32,2.75,0.48,4.76,0.48,6.03
		c0,2.12-0.32,3.81-0.95,5.08L567.07,255.73z M563.89,37.36c-0.21-0.42-0.74-1.06-1.59-1.9c-0.85,0.43-1.9,1.27-3.17,2.54
		c-1.48,5.93-3.49,14.07-6.03,24.44c0.42,0,1.37-0.21,2.86-0.63L563.89,37.36z M616.58,64.02v-1.9c-0.85-3.38-3.81-7.51-8.89-12.38
		c-4.44-4.02-8.25-6.82-11.43-8.41c-3.17-1.59-9.73-3.02-19.68-4.29c-7.2-1.06-9.95-1.59-8.25-1.59h-0.32
		c-1.7,5.29-4.02,13.54-6.98,24.76h4.44c0.42,0,2.22-0.32,5.4-0.95s4.97-0.95,5.4-0.95c5.29,0,12.01,1.54,20.15,4.6
		c8.14,3.07,11.69,4.6,10.63,4.6c0.63,0,2.22-0.53,4.76-1.59C614.36,64.87,615.94,64.24,616.58,64.02z M641.97,120.2
		c-5.93-9.73-11.85-19.46-17.77-29.2c-8.25-11.63-17.35-19.36-27.3-23.17c-5.29-2.11-8.04-3.17-8.25-3.17h-2.86l12.7,40.31
		c9.09,1.48,18.62,4.13,28.56,7.93c3.17,1.27,6.24,2.86,9.2,4.76c2.33,1.7,3.6,2.54,3.81,2.54H641.97z M633.72,97.67l-15.55-30.79
		c-0.85,0.43-2.01,1.01-3.49,1.75c-1.48,0.74-2.65,1.32-3.49,1.75C619.22,77.35,626.74,86.45,633.72,97.67z"/>
</g>
<radialGradient id="SVGID_00000172409359034701539040000018112067911583993000_" cx="313.936" cy="209.1692" r="141.2115" gradientUnits="userSpaceOnUse">
	<stop  offset="0" style="stop-color:#FFEF26"/>
	<stop  offset="0.0595" style="stop-color:#FFE000"/>
	<stop  offset="0.1303" style="stop-color:#FFD300"/>
	<stop  offset="0.2032" style="stop-color:#FECB00"/>
	<stop  offset="0.2809" style="stop-color:#FDC800"/>
	<stop  offset="0.6685" style="stop-color:#F18F34"/>
	<stop  offset="0.8876" style="stop-color:#E95F32"/>
	<stop  offset="1" style="stop-color:#E3312D"/>
</radialGradient>
<path style="fill:url(#SVGID_00000172409359034701539040000018112067911583993000_);" d="M412.64,141.66v-24.01h11.99v11.99
	L412.64,141.66z"/>
<radialGradient id="SVGID_00000062187896547805509420000010985157922976397757_" cx="313.936" cy="209.1692" r="141.2115" gradientUnits="userSpaceOnUse">
	<stop  offset="0" style="stop-color:#FFEF26"/>
	<stop  offset="0.0595" style="stop-color:#FFE000"/>
	<stop  offset="0.1303" style="stop-color:#FFD300"/>
	<stop  offset="0.2032" style="stop-color:#FECB00"/>
	<stop  offset="0.2809" style="stop-color:#FDC800"/>
	<stop  offset="0.6685" style="stop-color:#F18F34"/>
	<stop  offset="0.8876" style="stop-color:#E95F32"/>
	<stop  offset="1" style="stop-color:#E3312D"/>
</radialGradient>
<path style="fill:url(#SVGID_00000062187896547805509420000010985157922976397757_);" d="M438.42,201.64l-9-9.03v-5.99l11.99-12.02
	v15.01h11.99v-8.99l-23.98-23.99v-5.97h5.98l-5.98-6.01v-6.01l9-9h18l9,9v6.01l-12.02,11.99v-14.98h-11.99v9l24.01,23.98v18l-9,9
	H438.42z"/>
<radialGradient id="SVGID_00000137094233694796541460000006214403255432107673_" cx="313.936" cy="209.1692" r="141.2115" gradientUnits="userSpaceOnUse">
	<stop  offset="0" style="stop-color:#FFEF26"/>
	<stop  offset="0.0595" style="stop-color:#FFE000"/>
	<stop  offset="0.1303" style="stop-color:#FFD300"/>
	<stop  offset="0.2032" style="stop-color:#FECB00"/>
	<stop  offset="0.2809" style="stop-color:#FDC800"/>
	<stop  offset="0.6685" style="stop-color:#F18F34"/>
	<stop  offset="0.8876" style="stop-color:#E95F32"/>
	<stop  offset="1" style="stop-color:#E3312D"/>
</radialGradient>
<path style="fill:url(#SVGID_00000137094233694796541460000006214403255432107673_);" d="M323.32,293.63v-11.99h-2.99l-9-9v-41.98
	h5.98l-5.98-6.01v-6.01l9-9h18l9,9v54l-9,9h-3.02v11.99H323.32z M335.31,266.66v-45h-11.99v32.98L335.31,266.66z"/>
<radialGradient id="SVGID_00000146460023941158160280000009059346557052440466_" cx="313.936" cy="209.1692" r="141.2115" gradientUnits="userSpaceOnUse">
	<stop  offset="0" style="stop-color:#FFEF26"/>
	<stop  offset="0.0595" style="stop-color:#FFE000"/>
	<stop  offset="0.1303" style="stop-color:#FFD300"/>
	<stop  offset="0.2032" style="stop-color:#FECB00"/>
	<stop  offset="0.2809" style="stop-color:#FDC800"/>
	<stop  offset="0.6685" style="stop-color:#F18F34"/>
	<stop  offset="0.8876" style="stop-color:#E95F32"/>
	<stop  offset="1" style="stop-color:#E3312D"/>
</radialGradient>
<path style="fill:url(#SVGID_00000146460023941158160280000009059346557052440466_);" d="M361,281.64l-9-9v-63h11.99v53.97
	l-6.01,6.01h18v-59.98H388v63l-9,9H361z"/>
<radialGradient id="SVGID_00000166669163835882422150000013559807709249557694_" cx="313.936" cy="209.1692" r="141.2115" gradientUnits="userSpaceOnUse">
	<stop  offset="0" style="stop-color:#FFEF26"/>
	<stop  offset="0.0595" style="stop-color:#FFE000"/>
	<stop  offset="0.1303" style="stop-color:#FFD300"/>
	<stop  offset="0.2032" style="stop-color:#FECB00"/>
	<stop  offset="0.2809" style="stop-color:#FDC800"/>
	<stop  offset="0.6685" style="stop-color:#F18F34"/>
	<stop  offset="0.8876" style="stop-color:#E95F32"/>
	<stop  offset="1" style="stop-color:#E3312D"/>
</radialGradient>
<path style="fill:url(#SVGID_00000166669163835882422150000013559807709249557694_);" d="M401.65,281.64l-9-9v-41.98h5.98
	l-5.98-6.01v-6.01l9-9h27v12.02h-24.01v17.96h20.99l-11.99,12.02h-9v17.96h24.01v12.02H401.65z"/>
<radialGradient id="SVGID_00000129910743413754770380000010826316379860543934_" cx="313.936" cy="209.1692" r="141.2115" gradientUnits="userSpaceOnUse">
	<stop  offset="0" style="stop-color:#FFEF26"/>
	<stop  offset="0.0595" style="stop-color:#FFE000"/>
	<stop  offset="0.1303" style="stop-color:#FFD300"/>
	<stop  offset="0.2032" style="stop-color:#FECB00"/>
	<stop  offset="0.2809" style="stop-color:#FDC800"/>
	<stop  offset="0.6685" style="stop-color:#F18F34"/>
	<stop  offset="0.8876" style="stop-color:#E95F32"/>
	<stop  offset="1" style="stop-color:#E3312D"/>
</radialGradient>
<path style="fill:url(#SVGID_00000129910743413754770380000010826316379860543934_);" d="M442.31,281.64l-9-9.03v-5.99l11.99-12.02
	v15.01h11.99v-8.99l-23.98-23.99v-5.97h5.98l-5.98-6.01v-6.01l9-9h18l9,9v6.01l-12.02,11.99v-14.98H445.3v9l24.01,23.98v18l-9,9
	H442.31z"/>
<radialGradient id="SVGID_00000102515393248519564060000013932808174877762742_" cx="313.936" cy="209.1692" r="141.2115" gradientUnits="userSpaceOnUse">
	<stop  offset="0" style="stop-color:#FFEF26"/>
	<stop  offset="0.0595" style="stop-color:#FFE000"/>
	<stop  offset="0.1303" style="stop-color:#FFD300"/>
	<stop  offset="0.2032" style="stop-color:#FECB00"/>
	<stop  offset="0.2809" style="stop-color:#FDC800"/>
	<stop  offset="0.6685" style="stop-color:#F18F34"/>
	<stop  offset="0.8876" style="stop-color:#E95F32"/>
	<stop  offset="1" style="stop-color:#E3312D"/>
</radialGradient>
<path style="fill:url(#SVGID_00000102515393248519564060000013932808174877762742_);" d="M485.96,281.64v-54l6.01-5.98h-18v-12.02
	h36v12.02h-12.02v59.98H485.96z"/>
</svg>
