<?xml version="1.0" encoding="utf-8"?>
<!-- Generator: Adobe Illustrator 27.3.1, SVG Export Plug-In . SVG Version: 6.00 Build 0)  -->
<svg version="1.1" id="Camada_1" xmlns="http://www.w3.org/2000/svg" xmlns:xlink="http://www.w3.org/1999/xlink" x="0px" y="0px"
	 viewBox="0 0 651.11 615.63" style="enable-background:new 0 0 651.11 615.63;" xml:space="preserve">
<style type="text/css">
	.st0{fill:url(#SVGID_1_);stroke:#000000;stroke-miterlimit:10;}
	.st1{display:none;}
	.st2{fill:url(#SVGID_00000155144825195777757070000016752739390461371526_);}
	.st3{fill:url(#SVGID_00000068667072945186020290000010182518009333682578_);}
	.st4{fill:url(#SVGID_00000075851949874778864280000002469264371340305551_);}
	.st5{fill:url(#SVGID_00000167356127382182179690000013697704425156839099_);}
	.st6{fill:url(#SVGID_00000001638320780447177330000002981432348961083570_);}
	.st7{fill:url(#SVGID_00000039102878756299887540000001540658841094527901_);}
	.st8{fill:url(#SVGID_00000176001269395343513080000007873099151691961995_);}
	.st9{fill:url(#SVGID_00000023251129607069431730000007872412475659529148_);}
	.st10{fill:url(#SVGID_00000098917766058382485220000008236939505233542293_);}
	.st11{fill:url(#SVGID_00000176033540224179703610000010727995104295306641_);}
	.st12{fill:url(#SVGID_00000004516555618602853150000011668421804106534579_);}
	.st13{fill:url(#SVGID_00000162337318627006106770000011917045983585521818_);}
	.st14{fill:url(#SVGID_00000106123311533927334320000004148206090799284909_);}
</style>
<radialGradient id="SVGID_1_" cx="306.1531" cy="195.6369" r="343.7402" fx="342.8529" fy="31.9623" gradientTransform="matrix(1.0938 0 0 1.1708 -23.6865 81.1678)" gradientUnits="userSpaceOnUse">
	<stop  offset="0.2787" style="stop-color:#32A936"/>
	<stop  offset="0.3209" style="stop-color:#40AB36"/>
	<stop  offset="0.3811" style="stop-color:#60B234"/>
	<stop  offset="0.4521" style="stop-color:#88BD31"/>
	<stop  offset="0.5314" style="stop-color:#B5CD2B"/>
	<stop  offset="0.6166" style="stop-color:#E6E126"/>
	<stop  offset="0.6541" style="stop-color:#FBEA24"/>
</radialGradient>
<rect class="st0" width="651.11" height="615.63"/>
<rect x="832.93" y="-291.46" style="fill:none;" width="3.26" height="3.26"/>
<g class="st1">
</g>
<g class="st1">
</g>
<g>
	<path d="M18.19,78.02c6.56-18.2,13.96-31.84,22.22-40.94C51.2,25.65,60.3,19.94,67.7,19.94c0.63,0,1.17,0.11,1.59,0.32
		c0.63,0,1.17,0,1.59,0c0.43,0,2.33-0.53,5.71-1.59c3.39-1.06,5.29-1.59,5.71-1.59c10.37,0,19.31,2.33,26.82,6.98
		c7.51,4.66,16.66,13.33,27.45,26.03c-3.38-9.94-5.08-16.08-5.08-18.41V17.4c0-1.27,1.48-2.59,4.44-3.97
		c2.97-1.37,5.08-2.06,6.35-2.06c6.14,0,14.5,2.22,25.07,6.67c3.39,1.27,6.3,2.75,8.73,4.44c2.44,1.7,4.29,3.17,5.55,4.44
		c13.54,5.93,24.02,10.27,31.42,13.01c0.85,0.43,4.44,7.41,10.79,20.95c6.77,14.39,10.16,23.6,10.16,27.61
		c0,0.85-0.21,1.48-0.63,1.9h-1.9c-3.38-3.17-5.29-4.76-5.71-4.76c-0.42,0-0.74,0.11-0.95,0.32c-0.21,0.21-0.42,0.32-0.63,0.32v1.27
		l7.62,10.79c0,0.21-0.53,2.49-1.59,6.82c-1.06,4.34-1.59,7.14-1.59,8.41c-0.42,3.39-0.63,6.56-0.63,9.52c0,0.43,0,0.85,0,1.27
		l2.86,45.07c0.21,3.39,0.32,5.61,0.32,6.67c0,0.21-1.06,6.56-3.17,19.04c-1.69,10.16-2.54,16.72-2.54,19.68c0,0.21,0,2.12,0,5.71
		c0.21,3.39,0.32,5.93,0.32,7.62c-1.9-0.63-3.28-2.64-4.13-6.03c-0.84-2.54-1.59-5.08-2.22-7.62c-5.92-12.7-15.13-25.81-27.61-39.36
		c-4.44-4.65-10.32-12.22-17.62-22.69c-7.3-10.47-12.64-17.4-16.03-20.79c-0.84,0.85-1.91,1.59-3.17,2.22l-5.4-6.67l-3.49,22.53
		c0.21,0.63,1.17,2.44,2.86,5.4c0.85,1.27,1.27,3.6,1.27,6.98c0,4.44-0.84,7.73-2.54,9.84c-0.42,0-0.84,0-1.27,0
		c-0.42,0-0.79,0-1.11,0s-0.58,0-0.79,0c-0.21,0-0.42,0-0.63,0l-3.81,28.57c0.63,1.7,1.9,3.92,3.81,6.67
		c1.48,1.9,2.22,4.24,2.22,6.98c0,0.63-0.42,2.86-1.27,6.67c-0.21,1.06-1.06,2.54-2.54,4.44c-1.48,1.9-2.22,3.17-2.22,3.81
		c0,0.21,0,0.53,0,0.95c0,0.43,0,0.69,0,0.79c0,0.11,0,0.85,0,2.22c0,1.38,0,2.7,0,3.97c0,7.41,0.43,12.8,1.27,16.19
		c1.9,2.97,3.6,5.08,5.08,6.35c2.54,6.98,3.81,12.06,3.81,15.23c0,1.06-0.68,2.54-2.06,4.44c-1.37,1.9-2.06,3.81-2.06,5.71
		l6.35,33.33c5.71-3.17,9.95-5.71,12.7-7.62c1.27,1.27,1.9,2.22,1.9,2.86c0-1.27-1.27,3.38-3.81,13.96
		c-0.21-0.21-0.58-0.43-1.11-0.63c-0.53-0.21-0.79-0.43-0.79-0.63c0-1.06,0-2.01,0-2.86c0-2.12-0.21-3.81-0.63-5.08
		c-3.38,2.75-6.03,5.08-7.94,6.98c-5.08-4.24-8.99-7.62-11.74-10.16c-0.21,1.48-0.48,3.12-0.79,4.92c-0.32,1.79-1.43,2.8-3.33,3.01
		l-7.93-11.74c-1.69,4.23-3.06,7.83-4.13,10.79h-2.54c-2.96-5.08-5.18-8.15-6.67-9.2c-0.84,2.54-1.69,4.97-2.54,7.3
		c-1.27,2.96-2.64,4.97-4.13,6.03c-3.6-6.35-6.24-11.11-7.94-14.28l-4.76,12.7h-2.22c-0.84-0.43-1.43-1.64-1.75-3.65
		c-0.32-2.01-1.11-3.12-2.38-3.33c-0.63,1.69-1.16,3.38-1.59,5.08c-0.84,2.75-1.9,4.13-3.17,4.13s-2.27-1.43-3.02-4.28
		c-0.74-2.86-1.75-4.29-3.01-4.29c-1.27,2.33-2.54,5.71-3.81,10.16h-3.49c-0.84-0.85-1.27-1.59-1.27-2.22
		c0-3.6,1.17-8.04,3.49-13.33c0.43-1.06,1.7-2.12,3.81-3.17c1.9,1.69,3.28,2.96,4.13,3.81l1.59-28.88v-0.32
		c0-2.75-0.63-4.76-1.9-6.03c-5.92-6.77-8.89-14.81-8.89-24.12c0-4.02,1.48-6.87,4.44-8.57c2.12-1.06,3.81-1.9,5.08-2.54
		c3.39-10.58,5.08-19.78,5.08-27.61c0-0.63-0.74-1.75-2.22-3.33c-1.48-1.59-2.33-2.59-2.54-3.01c-0.84-1.9-1.27-5.18-1.27-9.84
		v-0.32c0-12.9,4.24-19.36,12.7-19.36c0.43,0,0.9,0.11,1.43,0.32c0.53,0.21,0.9,0.32,1.11,0.32c1.48,0,3.92-3.7,7.3-11.11
		c3.17-6.56,5.19-11.32,6.03-14.28c0.21-1.06,0.32-2.33,0.32-3.81c0-1.06-0.1-2.59-0.32-4.6c-0.21-2.01-0.32-3.44-0.32-4.28
		c0-1.9,0.95-4.65,2.86-8.25c3.39-1.06,6.14-1.8,8.25-2.22c0-0.21,0-0.53,0-0.95c0-1.27,0.85-3.33,2.54-6.19
		c1.7-2.86,2.65-4.71,2.86-5.55h-1.9c-0.42,0-1,0.32-1.75,0.95c-0.74,0.63-1.32,0.95-1.75,0.95c-0.42,0-0.84-0.1-1.27-0.32
		c-0.42-0.21-0.68-0.48-0.79-0.79c-0.1-0.32-0.37-0.9-0.79-1.75l5.08-17.14c-1.69-0.63-3.65-1.48-5.87-2.54
		c-2.22-1.06-3.33-2.33-3.33-3.81c0-0.21,0-0.53,0-0.95h-13.01c-1.9-5.08-3.06-9.2-3.49-12.38c-0.84-5.71-2.96-9.84-6.35-12.38
		l-0.95,0.95l3.17,20.63c0,1.48-0.42,2.54-1.27,3.17c-4.87,4.24-10.05,6.35-15.55,6.35c-0.42,0-1.06,0-1.9,0
		c-0.84-0.21-1.48-0.32-1.9-0.32c-0.42,0-4.29-0.26-11.58-0.79c-7.3-0.53-11.05-0.79-11.27-0.79c-6.98,0-15.81,2.97-26.5,8.89
		c-10.68,5.93-15.71,8.89-15.08,8.89c-0.63,0-1.16-0.21-1.59-0.63C10.26,102.88,14.17,90.51,18.19,78.02z M14.7,107.22
		c0.21,0,1.48-0.84,3.81-2.54c2.97-1.9,6.03-3.49,9.2-4.76c9.95-3.81,19.47-6.45,28.56-7.93l12.7-40.31h-2.86
		c-0.21,0-2.96,1.06-8.25,3.17c-9.94,3.81-19.04,11.54-27.3,23.17c-5.92,9.73-11.85,19.47-17.77,29.2H14.7z M43.58,57.39
		c-0.84-0.42-2.01-1-3.49-1.75c-1.48-0.74-2.64-1.32-3.49-1.75L21.05,84.68C28.03,73.47,35.54,64.37,43.58,57.39z M42.95,52.95
		c2.54,1.06,4.13,1.59,4.76,1.59c-1.06,0,2.49-1.53,10.63-4.6c8.15-3.06,14.87-4.6,20.15-4.6c0.43,0,2.22,0.32,5.4,0.95
		s4.97,0.95,5.4,0.95h4.44c-2.96-11.21-5.29-19.46-6.98-24.76h-0.32c1.7,0-1.06,0.53-8.25,1.59c-9.94,1.27-16.5,2.7-19.68,4.29
		c-3.17,1.59-6.98,4.39-11.43,8.41c-5.08,4.87-8.04,9-8.89,12.38v1.9C38.82,51.25,40.41,51.89,42.95,52.95z M73.1,93.73
		c5.5,0.32,8.36,0.48,8.57,0.48c4.02,0,6.03-2.11,6.03-6.35c0-0.42-0.53-3.22-1.59-8.41c-1.06-5.18-1.59-7.98-1.59-8.41
		c0-5.29,1.7-7.93,5.08-7.93c2.97,0,5.93,2.65,8.89,7.93c2.97,7.41,4.97,13.23,6.03,17.46h9.21c4.44,0,13.54-2.22,27.29-6.67
		c2.12-5.29,3.81-9.52,5.08-12.7c-5.71-0.21-16.29-3.44-31.74-9.68c-15.44-6.24-27.61-9.36-36.5-9.36l-4.44,0.95
		c-7.4,26.24-11.43,40.31-12.06,42.21C63.69,93.25,67.6,93.41,73.1,93.73z M83.57,271.31h29.2c7.41,0,14.39,0.74,20.95,2.22
		c4.02,1.06,5.93,1.59,5.71,1.59h4.44v-2.22c0-5.5-1.06-9.68-3.17-12.54c-2.11-2.86-7.4-5.44-15.87-7.78
		c-12.9-3.38-23.91-5.08-33.01-5.08c-4.23,0-8.46,1.38-12.7,4.13L83.57,271.31z M87.7,203.07c0,1.9,0,3.28,0,4.13
		c0.63,0,1.75-0.1,3.33-0.32c1.59-0.21,2.59-0.32,3.01-0.32c6.14,0,13.86,1.8,23.17,5.4c6.56,2.75,13.01,5.4,19.36,7.93h1.9
		c0.63-1.9,0.95-3.6,0.95-5.08c0-2.96-1.27-5.92-3.81-8.89c-4.44-5.08-12.9-10.58-25.39-16.5c-4.87-2.33-9.52-3.49-13.97-3.49
		c0.43,0-1.48,0.32-5.71,0.95c-2.11,3.17-3.17,7.62-3.17,13.33C87.38,200.43,87.49,201.38,87.7,203.07z M136.26,250.68
		c-0.63-1.27-0.95-2.96-0.95-5.08c0-1.27,0.16-3.28,0.48-6.03c0.32-2.75,0.48-4.76,0.48-6.03c0-2.75-0.74-5.71-2.22-8.89
		c-5.71-2.54-11.43-5.18-17.14-7.93c-7.4-3.17-13.22-4.76-17.46-4.76c-3.81,0-6.03,0.74-6.67,2.22
		c-2.54,12.49-4.23,22.01-5.08,28.57L136.26,250.68z M87.7,307.81h0.32c1.27,0,2.44,1.06,3.49,3.17c1.7,2.75,2.86,4.44,3.49,5.08
		c2.54-5.71,4.44-10.37,5.71-13.96c1.48,0.21,3.02,2.06,4.6,5.55s3.02,6.82,4.29,10c1.9-5.5,3.39-9.84,4.44-13.01h0.32
		c0.21,0,0.43-0.11,0.63-0.32c3.17,3.81,5.5,6.87,6.98,9.2h1.9c1.27-5.71,2.22-10.16,2.86-13.33l0.32-0.32h0.63
		c2.12,0,5.29,5.08,9.52,15.23c1.48-4.44,2.65-7.73,3.49-9.84h1.27c2.12,2.96,3.81,5.18,5.08,6.67c-0.84-3.17-2.11-9.63-3.81-19.36
		c-0.84-5.93-2.33-10.37-4.44-13.33c-13.75-2.75-25.07-4.13-33.96-4.13c-0.21,0-0.58,0-1.11,0c-0.53,0-1,0-1.43,0
		c-5.29,0-10.16,1.27-14.6,3.81V307.81z M98.81,48.82c1.48,0.43,2.44,0.63,2.86,0.63c-2.54-10.36-4.55-18.51-6.03-24.44
		c-1.27-1.27-2.33-2.11-3.17-2.54c-0.84,0.85-1.37,1.48-1.59,1.9L98.81,48.82z M107.06,51.04c16.08,5.5,28.25,9.84,36.5,13.01
		c-6.35-7.19-12.8-14.39-19.36-21.58c-8.89-9.1-16.93-14.6-24.12-16.5C101.56,32.53,103.88,40.88,107.06,51.04z M134.67,197.99
		l3.17-33.96c-9.94-5.5-16.08-8.25-18.41-8.25c-1.69,0-3.17,0.32-4.44,0.95c-5.08,11-8.89,19.47-11.43,25.39L134.67,197.99z
		 M116.58,149.11c11.85,2.97,20.84,7.73,26.98,14.28c0.63-0.63,0.95-1.59,0.95-2.86c0-3.17-3.44-7.83-10.31-13.97
		c-6.87-6.13-11.79-9.2-14.76-9.2c-3.17,0-4.76,2.44-4.76,7.3C114.68,146.15,115.31,147.64,116.58,149.11z M122.93,95.16
		c3.81,0,5.93,1.06,6.35,3.17l-2.54,15.23c7.2-2.75,10.27-4.13,9.2-4.13c1.48,0,2.86,1.64,4.13,4.92c1.27,3.28,1.9,5.55,1.9,6.82
		c3.81-4.23,5.61-6.35,5.4-6.35c1.7,0,3.28,2.12,4.76,6.35l-11.11-34.28l-18.73,8.25C122.51,95.16,122.72,95.16,122.93,95.16z
		 M141.02,144.35l4.44-19.68c-3.38,4.24-5.29,6.35-5.71,6.35c-1.48,0-2.64-2.54-3.49-7.62c-0.21-2.96-0.42-5.82-0.63-8.57
		c-4.65,6.77-8.36,12.8-11.11,18.09L141.02,144.35z M136.89,31.05c8.68,2.75,15.34,4.87,20,6.35c-7.62-5.5-14.6-10.26-20.95-14.28
		C136.37,26.5,136.69,29.14,136.89,31.05z M157.21,31.68c1.91-3.81,2.86-5.92,2.86-6.35c0-2.11-2.54-4.23-7.62-6.35
		c-4.23-1.48-7.19-2.22-8.89-2.22h-0.63c-2.75,0-4.76,0.95-6.03,2.86L157.21,31.68z M153.71,66.91h4.13l-2.54-25.39
		c-5.71-2.11-11.43-4.13-17.14-6.03C141.55,49.67,146.73,60.14,153.71,66.91z M161.33,123.72c9.1,19.26,17.03,32.17,23.8,38.72
		c4.87-3.6,10.58-8.36,17.14-14.28l-3.49-23.17c-1.48-10.58-3.38-19.15-5.71-25.71c-0.84-3.38-1.69-6.77-2.54-10.16
		c-1.48-4.44-4.02-8.14-7.62-11.11c-1.06-1.06-4.18-2.27-9.36-3.65c-5.18-1.37-8.94-2.06-11.27-2.06c-3.38,0-6.67,0.79-9.84,2.38
		c-3.17,1.59-4.76,3.86-4.76,6.82C147.68,90.4,152.24,104.47,161.33,123.72z M163.24,63.74c1.48,2.75,4.55,4.13,9.2,4.13
		c4.87,0,16.4-9.1,34.59-27.3l-38.72-13.01c-4.87,0.85-7.3,9-7.3,24.44C161.02,57.71,161.76,61.62,163.24,63.74z M186.72,72.62
		c0.85,0,4.02-1.79,9.52-5.4c-0.63-2.11-2.01-4.23-4.13-6.35c-5.08,4.02-8.89,7.2-11.43,9.52
		C185.98,71.88,187.99,72.62,186.72,72.62z M203.23,180.85c7.41,8.04,12.38,14.6,14.92,19.68l-14.6-46.34l-14.92,11.11
		C193.5,170.59,198.36,175.77,203.23,180.85z M194.98,97.06c3.6,13.54,6.98,22.96,10.16,28.25c1.48,2.54,4.55,4.87,9.21,6.98
		c3.81,1.7,7.62,3.39,11.43,5.08c0-0.21,0.11-0.9,0.32-2.06c0.21-1.16,0.32-1.95,0.32-2.38c0-8.67-2.33-19.78-6.98-33.33
		c-6.13-17.98-13.65-26.98-22.54-26.98c-1.27,0-2.7,0.63-4.28,1.9s-2.38,2.33-2.38,3.17C190.21,79.4,191.8,85.85,194.98,97.06z
		 M225.45,70.4c-4.02-9.52-7.19-16.4-9.52-20.63c-0.63-1.69-2.01-2.54-4.13-2.54c-2.54,0-6.03,1.59-10.47,4.76
		c-1.27,0.85-2.75,2.65-4.44,5.4L225.45,70.4z M203.54,68.81c3.39,2.33,5.29,3.7,5.71,4.13c4.02,3.39,7.51,8.47,10.47,15.23
		c5.08,11.43,7.62,17.25,7.62,17.46V99.6c0-0.42-1.21-2.8-3.65-7.14c-2.43-4.33-3.65-6.71-3.65-7.14c0-2.54,1.8-3.81,5.4-3.81
		c1.06,0,2.22,0.11,3.49,0.32c-0.42-3.38-4.13-6.77-11.11-10.16c-6.13-2.54-12.27-5.18-18.41-7.93v1.9
		C199.42,66.07,200.8,67.12,203.54,68.81z M203.86,131.34c0,3.17,2.86,6.67,8.57,10.47c4.44,2.75,8.78,5.61,13.01,8.57h1.9v-0.32
		c0-4.02-3.06-8.25-9.2-12.7c-5.08-3.38-9.84-5.71-14.28-6.98C203.86,130.6,203.86,130.92,203.86,131.34z M223.54,195.14
		c2.75-8.46,4.13-18.2,4.13-29.2v-2.22c0-5.5-0.95-8.78-2.86-9.84c-6.13-3.38-12.17-6.87-18.09-10.47L223.54,195.14z"/>
</g>
<radialGradient id="SVGID_00000122712441849228632980000008961183946841516690_" cx="313.936" cy="191.4269" r="141.2115" gradientUnits="userSpaceOnUse">
	<stop  offset="0" style="stop-color:#FFEF26"/>
	<stop  offset="0.0595" style="stop-color:#FFE000"/>
	<stop  offset="0.1303" style="stop-color:#FFD300"/>
	<stop  offset="0.2032" style="stop-color:#FECB00"/>
	<stop  offset="0.2809" style="stop-color:#FDC800"/>
	<stop  offset="0.6685" style="stop-color:#F18F34"/>
	<stop  offset="0.8876" style="stop-color:#E95F32"/>
	<stop  offset="1" style="stop-color:#E3312D"/>
</radialGradient>
<path style="fill:url(#SVGID_00000122712441849228632980000008961183946841516690_);" d="M168.2,183.9v-29.99l5.98-6.01h-5.98v-36
	h27l9,9v15.01l-7.52,7.49l7.52,7.52v23.98l-9,9H168.2z M180.19,141.92l11.99-12.02v-5.98h-11.99V141.92z M192.17,171.87v-15.01
	l-4.5-4.5l-7.49,7.52v11.99H192.17z"/>
<radialGradient id="SVGID_00000142152051521771908180000012266428951785848999_" cx="313.936" cy="191.4269" r="141.2115" gradientUnits="userSpaceOnUse">
	<stop  offset="0" style="stop-color:#FFEF26"/>
	<stop  offset="0.0595" style="stop-color:#FFE000"/>
	<stop  offset="0.1303" style="stop-color:#FFD300"/>
	<stop  offset="0.2032" style="stop-color:#FECB00"/>
	<stop  offset="0.2809" style="stop-color:#FDC800"/>
	<stop  offset="0.6685" style="stop-color:#F18F34"/>
	<stop  offset="0.8876" style="stop-color:#E95F32"/>
	<stop  offset="1" style="stop-color:#E3312D"/>
</radialGradient>
<path style="fill:url(#SVGID_00000142152051521771908180000012266428951785848999_);" d="M208.86,183.9v-23.98h5.98l-5.98-6.01
	V120.9l9-9h18l9,9v63h-12.02v-23.98h-11.99v23.98H208.86z M232.83,147.9v-23.98h-11.99v23.98H232.83z"/>
<radialGradient id="SVGID_00000067209310207194302150000014659714019714767779_" cx="313.936" cy="191.4269" r="141.2115" gradientUnits="userSpaceOnUse">
	<stop  offset="0" style="stop-color:#FFEF26"/>
	<stop  offset="0.0595" style="stop-color:#FFE000"/>
	<stop  offset="0.1303" style="stop-color:#FFD300"/>
	<stop  offset="0.2032" style="stop-color:#FECB00"/>
	<stop  offset="0.2809" style="stop-color:#FDC800"/>
	<stop  offset="0.6685" style="stop-color:#F18F34"/>
	<stop  offset="0.8876" style="stop-color:#E95F32"/>
	<stop  offset="1" style="stop-color:#E3312D"/>
</radialGradient>
<path style="fill:url(#SVGID_00000067209310207194302150000014659714019714767779_);" d="M249.62,183.9v-47.99h5.98l-5.98-6.01v-18
	l23.98,24.01V111.9h12.02v72h-12.02v-29.99l-11.99-11.99v41.98H249.62z"/>
<radialGradient id="SVGID_00000165233115612793118820000003170635108427938211_" cx="313.936" cy="191.4269" r="141.2115" gradientUnits="userSpaceOnUse">
	<stop  offset="0" style="stop-color:#FFEF26"/>
	<stop  offset="0.0595" style="stop-color:#FFE000"/>
	<stop  offset="0.1303" style="stop-color:#FFD300"/>
	<stop  offset="0.2032" style="stop-color:#FECB00"/>
	<stop  offset="0.2809" style="stop-color:#FDC800"/>
	<stop  offset="0.6685" style="stop-color:#F18F34"/>
	<stop  offset="0.8876" style="stop-color:#E95F32"/>
	<stop  offset="1" style="stop-color:#E3312D"/>
</radialGradient>
<path style="fill:url(#SVGID_00000165233115612793118820000003170635108427938211_);" d="M290.37,183.9v-23.98h5.98l-5.98-6.01
	V120.9l9-9h18l9,9v63h-12.02v-23.98h-11.99v23.98H290.37z M314.34,147.9v-23.98h-11.99v23.98H314.34z"/>
<radialGradient id="SVGID_00000052820171342433914280000016795902134522699966_" cx="313.936" cy="191.4269" r="141.2115" gradientUnits="userSpaceOnUse">
	<stop  offset="0" style="stop-color:#FFEF26"/>
	<stop  offset="0.0595" style="stop-color:#FFE000"/>
	<stop  offset="0.1303" style="stop-color:#FFD300"/>
	<stop  offset="0.2032" style="stop-color:#FECB00"/>
	<stop  offset="0.2809" style="stop-color:#FDC800"/>
	<stop  offset="0.6685" style="stop-color:#F18F34"/>
	<stop  offset="0.8876" style="stop-color:#E95F32"/>
	<stop  offset="1" style="stop-color:#E3312D"/>
</radialGradient>
<path style="fill:url(#SVGID_00000052820171342433914280000016795902134522699966_);" d="M331.13,183.9v-47.99h5.98l-5.98-6.01v-18
	l23.98,24.01V111.9h12.02v72H355.1v-29.99l-11.99-11.99v41.98H331.13z"/>
<radialGradient id="SVGID_00000080203125720684536070000010522504845034424212_" cx="313.936" cy="191.4269" r="141.2115" gradientUnits="userSpaceOnUse">
	<stop  offset="0" style="stop-color:#FFEF26"/>
	<stop  offset="0.0595" style="stop-color:#FFE000"/>
	<stop  offset="0.1303" style="stop-color:#FFD300"/>
	<stop  offset="0.2032" style="stop-color:#FECB00"/>
	<stop  offset="0.2809" style="stop-color:#FDC800"/>
	<stop  offset="0.6685" style="stop-color:#F18F34"/>
	<stop  offset="0.8876" style="stop-color:#E95F32"/>
	<stop  offset="1" style="stop-color:#E3312D"/>
</radialGradient>
<path style="fill:url(#SVGID_00000080203125720684536070000010522504845034424212_);" d="M371.88,183.9v-23.98h5.98l-5.98-6.01
	V120.9l9-9h18l9,9v63h-12.02v-23.98h-11.99v23.98H371.88z M395.86,147.9v-23.98h-11.99v23.98H395.86z"/>
<g>
	<path d="M648.32,110.39c-0.43,0.43-0.95,0.63-1.59,0.63c0.63,0-4.39-2.96-15.08-8.89c-10.69-5.92-19.52-8.89-26.5-8.89
		c-0.21,0-3.97,0.27-11.27,0.79c-7.3,0.53-11.16,0.79-11.58,0.79c-0.43,0-1.06,0.11-1.9,0.32c-0.85,0-1.48,0-1.9,0
		c-5.5,0-10.69-2.11-15.55-6.35c-0.85-0.63-1.27-1.69-1.27-3.17l3.17-20.63l-0.95-0.95c-3.39,2.54-5.5,6.67-6.35,12.38
		c-0.43,3.17-1.59,7.3-3.49,12.38h-13.01c0,0.43,0,0.74,0,0.95c0,1.48-1.11,2.75-3.33,3.81c-2.22,1.06-4.18,1.9-5.87,2.54
		l5.08,17.14c-0.43,0.85-0.69,1.43-0.79,1.75c-0.11,0.32-0.37,0.59-0.79,0.79c-0.43,0.21-0.85,0.32-1.27,0.32
		c-0.43,0-1.01-0.32-1.75-0.95c-0.74-0.63-1.32-0.95-1.75-0.95h-1.9c0.21,0.85,1.16,2.7,2.86,5.55c1.69,2.86,2.54,4.92,2.54,6.19
		c0,0.43,0,0.74,0,0.95c2.11,0.43,4.87,1.17,8.25,2.22c1.9,3.6,2.86,6.35,2.86,8.25c0,0.85-0.11,2.28-0.32,4.28
		c-0.21,2.01-0.32,3.55-0.32,4.6c0,1.48,0.1,2.75,0.32,3.81c0.84,2.97,2.86,7.73,6.03,14.28c3.38,7.41,5.82,11.11,7.3,11.11
		c0.21,0,0.58-0.1,1.11-0.32c0.53-0.21,1-0.32,1.43-0.32c8.46,0,12.7,6.46,12.7,19.36v0.32c0,4.66-0.43,7.93-1.27,9.84
		c-0.21,0.43-1.06,1.43-2.54,3.01c-1.48,1.59-2.22,2.7-2.22,3.33c0,7.83,1.69,17.04,5.08,27.61c1.27,0.63,2.96,1.48,5.08,2.54
		c2.96,1.7,4.44,4.55,4.44,8.57c0,9.31-2.97,17.35-8.89,24.12c-1.27,1.27-1.9,3.28-1.9,6.03v0.32l1.59,28.88
		c0.84-0.85,2.22-2.12,4.13-3.81c2.11,1.06,3.38,2.11,3.81,3.17c2.33,5.29,3.49,9.73,3.49,13.33c0,0.63-0.43,1.37-1.27,2.22h-3.49
		c-1.27-4.44-2.54-7.83-3.81-10.16c-1.27,0-2.28,1.43-3.01,4.29c-0.74,2.86-1.75,4.28-3.02,4.28s-2.33-1.38-3.17-4.13
		c-0.43-1.7-0.95-3.39-1.59-5.08c-1.27,0.21-2.06,1.32-2.38,3.33c-0.32,2.01-0.9,3.22-1.75,3.65h-2.22l-4.76-12.7
		c-1.7,3.17-4.34,7.93-7.94,14.28c-1.48-1.06-2.86-3.07-4.13-6.03c-0.85-2.33-1.7-4.76-2.54-7.3c-1.48,1.06-3.7,4.13-6.67,9.2h-2.54
		c-1.06-2.97-2.43-6.56-4.13-10.79l-7.93,11.74c-1.9-0.21-3.02-1.22-3.33-3.01c-0.32-1.8-0.58-3.44-0.79-4.92
		c-2.75,2.54-6.67,5.92-11.74,10.16c-1.9-1.9-4.55-4.24-7.94-6.98c-0.43,1.27-0.63,2.96-0.63,5.08c0,0.84,0,1.79,0,2.86
		c0,0.21-0.27,0.42-0.79,0.63c-0.53,0.21-0.9,0.42-1.11,0.63c-2.54-10.58-3.81-15.23-3.81-13.96c0-0.63,0.63-1.59,1.9-2.86
		c2.75,1.9,6.98,4.44,12.7,7.62l6.35-33.33c0-1.9-0.69-3.81-2.06-5.71c-1.38-1.9-2.06-3.39-2.06-4.44c0-3.17,1.27-8.25,3.81-15.23
		c1.48-1.27,3.17-3.38,5.08-6.35c0.84-3.38,1.27-8.78,1.27-16.19c0-1.27,0-2.59,0-3.97c0-1.37,0-2.11,0-2.22c0-0.1,0-0.37,0-0.79
		c0-0.42,0-0.74,0-0.95c0-0.63-0.74-1.9-2.22-3.81c-1.48-1.9-2.33-3.38-2.54-4.44c-0.85-3.81-1.27-6.03-1.27-6.67
		c0-2.75,0.74-5.08,2.22-6.98c1.9-2.75,3.17-4.97,3.81-6.67l-3.81-28.57c-0.21,0-0.43,0-0.63,0c-0.21,0-0.48,0-0.79,0
		s-0.69,0-1.11,0c-0.43,0-0.85,0-1.27,0c-1.7-2.11-2.54-5.4-2.54-9.84c0-3.38,0.42-5.71,1.27-6.98c1.69-2.96,2.64-4.76,2.86-5.4
		l-3.49-22.53l-5.4,6.67c-1.27-0.63-2.33-1.37-3.17-2.22c-3.39,3.39-8.73,10.31-16.03,20.79c-7.3,10.47-13.17,18.04-17.62,22.69
		c-12.49,13.54-21.69,26.66-27.61,39.36c-0.63,2.54-1.38,5.08-2.22,7.62c-0.85,3.39-2.22,5.4-4.13,6.03c0-1.69,0.1-4.23,0.32-7.62
		c0-3.6,0-5.5,0-5.71c0-2.96-0.85-9.52-2.54-19.68c-2.12-12.48-3.17-18.83-3.17-19.04c0-1.06,0.1-3.28,0.32-6.67l2.86-45.07
		c0-0.42,0-0.84,0-1.27c0-2.96-0.21-6.13-0.63-9.52c0-1.27-0.53-4.07-1.59-8.41c-1.06-4.33-1.59-6.61-1.59-6.82l7.62-10.79v-1.27
		c-0.21,0-0.43-0.1-0.63-0.32c-0.21-0.21-0.53-0.32-0.95-0.32c-0.43,0-2.33,1.59-5.71,4.76h-1.9c-0.43-0.42-0.63-1.06-0.63-1.9
		c0-4.02,3.38-13.22,10.16-27.61c6.35-13.54,9.94-20.52,10.79-20.95c7.4-2.75,17.88-7.09,31.42-13.01c1.27-1.27,3.12-2.75,5.55-4.44
		c2.43-1.69,5.34-3.17,8.73-4.44c10.58-4.44,18.93-6.67,25.07-6.67c1.27,0,3.38,0.69,6.35,2.06c2.96,1.38,4.44,2.7,4.44,3.97v14.28
		c0,2.33-1.7,8.47-5.08,18.41c10.79-12.7,19.94-21.37,27.45-26.03c7.51-4.65,16.45-6.98,26.82-6.98c0.42,0,2.33,0.53,5.71,1.59
		c3.38,1.06,5.29,1.59,5.71,1.59c0.42,0,0.95,0,1.59,0c0.42-0.21,0.95-0.32,1.59-0.32c7.4,0,16.5,5.71,27.3,17.14
		c8.25,9.1,15.66,22.75,22.22,40.94C640.59,85.75,644.51,98.12,648.32,110.39z M455.35,60.88v-1.9c-6.14,2.75-12.27,5.4-18.41,7.93
		c-6.98,3.39-10.69,6.77-11.11,10.16c1.27-0.21,2.43-0.32,3.49-0.32c3.6,0,5.4,1.27,5.4,3.81c0,0.43-1.22,2.81-3.65,7.14
		c-2.44,4.34-3.65,6.72-3.65,7.14v6.03c0-0.21,2.54-6.03,7.62-17.46c2.96-6.77,6.45-11.85,10.47-15.23
		c0.42-0.42,2.33-1.79,5.71-4.13C453.97,62.36,455.35,61.31,455.35,60.88z M448.05,138.64c-5.93,3.6-11.96,7.09-18.09,10.47
		c-1.9,1.06-2.86,4.34-2.86,9.84v2.22c0,11,1.37,20.74,4.13,29.2L448.05,138.64z M450.9,125.63c-4.44,1.27-9.21,3.6-14.28,6.98
		c-6.14,4.44-9.2,8.68-9.2,12.7v0.32h1.9c4.23-2.96,8.57-5.82,13.01-8.57c5.71-3.81,8.57-7.3,8.57-10.47
		C450.9,126.16,450.9,125.84,450.9,125.63z M464.55,72.94c0-0.84-0.79-1.9-2.38-3.17s-3.01-1.9-4.28-1.9c-8.89,0-16.4,9-22.54,26.98
		c-4.66,13.54-6.98,24.65-6.98,33.33c0,0.43,0.1,1.22,0.32,2.38c0.21,1.17,0.32,1.85,0.32,2.06c3.81-1.69,7.62-3.38,11.43-5.08
		c4.65-2.11,7.72-4.44,9.21-6.98c3.17-5.29,6.56-14.7,10.16-28.25C462.96,81.09,464.55,74.64,464.55,72.94z M457.88,52.63
		c-1.7-2.75-3.17-4.55-4.44-5.4c-4.44-3.17-7.94-4.76-10.47-4.76c-2.12,0-3.49,0.85-4.13,2.54c-2.33,4.24-5.5,11.11-9.52,20.63
		L457.88,52.63z M466.14,160.54l-14.92-11.11l-14.6,46.34c2.54-5.08,7.51-11.63,14.92-19.68
		C456.4,171.01,461.27,165.83,466.14,160.54z M493.75,47.23c0-15.44-2.43-23.59-7.3-24.44l-38.72,13.01
		c18.2,18.2,29.72,27.3,34.59,27.3c4.65,0,7.72-1.37,9.2-4.13C493.01,56.86,493.75,52.95,493.75,47.23z M507.08,76.75
		c0-2.96-1.59-5.24-4.76-6.82c-3.17-1.59-6.46-2.38-9.84-2.38c-2.33,0-6.08,0.69-11.27,2.06c-5.19,1.38-8.31,2.59-9.36,3.65
		c-3.6,2.97-6.14,6.67-7.62,11.11c-0.85,3.39-1.7,6.77-2.54,10.16c-2.33,6.56-4.24,15.13-5.71,25.71l-3.49,23.17
		c6.56,5.93,12.27,10.69,17.14,14.28c6.77-6.56,14.7-19.46,23.8-38.72C502.53,99.71,507.08,85.64,507.08,76.75z M474.07,65.64
		c-2.54-2.33-6.35-5.5-11.43-9.52c-2.12,2.12-3.49,4.24-4.13,6.35c5.5,3.6,8.67,5.4,9.52,5.4
		C466.77,67.86,468.78,67.12,474.07,65.64z M517.87,14.86c-1.27-1.9-3.28-2.86-6.03-2.86h-0.63c-1.7,0-4.66,0.74-8.89,2.22
		c-5.08,2.12-7.62,4.24-7.62,6.35c0,0.43,0.95,2.54,2.86,6.35L517.87,14.86z M516.6,30.73c-5.71,1.9-11.43,3.92-17.14,6.03
		l-2.54,25.39h4.13C508.03,55.38,513.21,44.91,516.6,30.73z M518.82,18.35c-6.35,4.02-13.33,8.78-20.95,14.28
		c4.65-1.48,11.32-3.6,20-6.35C518.08,24.38,518.4,21.74,518.82,18.35z M532.47,90.4l-18.73-8.25l-11.11,34.28
		c1.48-4.23,3.06-6.35,4.76-6.35c-0.21,0,1.59,2.12,5.4,6.35c0-1.27,0.63-3.54,1.9-6.82c1.27-3.28,2.64-4.92,4.13-4.92
		c-1.06,0,2.01,1.38,9.2,4.13l-2.54-15.23c0.42-2.11,2.54-3.17,6.35-3.17C532.04,90.4,532.26,90.4,532.47,90.4z M567.07,274.17
		c-4.44-2.54-9.31-3.81-14.6-3.81c-0.43,0-0.9,0-1.43,0c-0.53,0-0.9,0-1.11,0c-8.89,0-20.21,1.37-33.96,4.13
		c-2.12,2.96-3.6,7.4-4.44,13.33c-1.7,9.73-2.97,16.19-3.81,19.36c1.27-1.48,2.96-3.71,5.08-6.67h1.27c0.84,2.11,2.01,5.4,3.49,9.84
		c4.23-10.16,7.4-15.23,9.52-15.23h0.63l0.32,0.32c0.63,3.17,1.59,7.62,2.86,13.33h1.9c1.48-2.33,3.81-5.4,6.98-9.2
		c0.21,0.21,0.42,0.32,0.63,0.32h0.32c1.06,3.17,2.54,7.51,4.44,13.01c1.27-3.17,2.7-6.51,4.29-10s3.12-5.35,4.6-5.55
		c1.27,3.59,3.17,8.25,5.71,13.96c0.63-0.63,1.79-2.33,3.49-5.08c1.06-2.12,2.22-3.17,3.49-3.17h0.32V274.17z M593.41,88.49
		c-0.63-1.9-4.66-15.97-12.06-42.21l-4.44-0.95c-8.89,0-21.06,3.12-36.5,9.36c-15.45,6.24-26.03,9.47-31.74,9.68
		c1.27,3.17,2.96,7.41,5.08,12.7c13.75,4.44,22.85,6.67,27.29,6.67h9.21c1.06-4.23,3.06-10.05,6.03-17.46
		c2.96-5.29,5.92-7.93,8.89-7.93c3.38,0,5.08,2.65,5.08,7.93c0,0.43-0.53,3.23-1.59,8.41c-1.06,5.19-1.59,7.99-1.59,8.41
		c0,4.24,2.01,6.35,6.03,6.35c0.21,0,3.06-0.16,8.57-0.48C587.17,88.65,591.08,88.49,593.41,88.49z M530.25,128.17
		c-2.75-5.29-6.46-11.32-11.11-18.09c-0.21,2.75-0.43,5.61-0.63,8.57c-0.85,5.08-2.01,7.62-3.49,7.62c-0.43,0-2.33-2.11-5.71-6.35
		l4.44,19.68L530.25,128.17z M540.09,139.91c0-4.86-1.59-7.3-4.76-7.3c-2.97,0-7.88,3.07-14.76,9.2
		c-6.88,6.14-10.31,10.79-10.31,13.97c0,1.27,0.32,2.22,0.95,2.86c6.13-6.56,15.12-11.32,26.98-14.28
		C539.45,142.88,540.09,141.39,540.09,139.91z M575.64,246.87c-4.24-2.75-8.46-4.13-12.7-4.13c-9.1,0-20.1,1.7-33.01,5.08
		c-8.46,2.33-13.76,4.92-15.87,7.78c-2.12,2.86-3.17,7.03-3.17,12.54v2.22h4.44c-0.21,0,1.69-0.53,5.71-1.59
		c6.56-1.48,13.54-2.22,20.95-2.22h29.2L575.64,246.87z M554.69,21.21c-7.2,1.9-15.24,7.41-24.12,16.5
		c-6.56,7.2-13.01,14.39-19.36,21.58c8.25-3.17,20.42-7.51,36.5-13.01C550.88,36.12,553.2,27.77,554.69,21.21z M567.38,195.45
		c0-5.71-1.06-10.16-3.17-13.33c-4.24-0.63-6.14-0.95-5.71-0.95c-4.44,0-9.1,1.17-13.97,3.49c-12.49,5.93-20.95,11.43-25.39,16.5
		c-2.54,2.97-3.81,5.93-3.81,8.89c0,1.48,0.32,3.17,0.95,5.08h1.9c6.35-2.54,12.8-5.18,19.36-7.93c9.31-3.6,17.03-5.4,23.17-5.4
		c0.42,0,1.43,0.11,3.01,0.32c1.59,0.21,2.7,0.32,3.33,0.32c0-0.84,0-2.22,0-4.13C567.27,196.62,567.38,195.67,567.38,195.45z
		 M551.2,177.36c-2.54-5.92-6.35-14.39-11.43-25.39c-1.27-0.63-2.75-0.95-4.44-0.95c-2.33,0-8.46,2.75-18.41,8.25l3.17,33.96
		L551.2,177.36z M567.07,237.98c-0.85-6.56-2.54-16.08-5.08-28.57c-0.63-1.48-2.86-2.22-6.67-2.22c-4.24,0-10.05,1.59-17.46,4.76
		c-5.71,2.75-11.43,5.4-17.14,7.93c-1.48,3.17-2.22,6.14-2.22,8.89c0,1.27,0.16,3.28,0.48,6.03c0.32,2.75,0.48,4.76,0.48,6.03
		c0,2.12-0.32,3.81-0.95,5.08L567.07,237.98z M563.89,19.62c-0.21-0.42-0.74-1.06-1.59-1.9c-0.85,0.43-1.9,1.27-3.17,2.54
		c-1.48,5.93-3.49,14.07-6.03,24.44c0.42,0,1.37-0.21,2.86-0.63L563.89,19.62z M616.58,46.28v-1.9c-0.85-3.38-3.81-7.51-8.89-12.38
		c-4.44-4.02-8.25-6.82-11.43-8.41c-3.17-1.59-9.73-3.02-19.68-4.29c-7.2-1.06-9.95-1.59-8.25-1.59h-0.32
		c-1.7,5.29-4.02,13.54-6.98,24.76h4.44c0.42,0,2.22-0.32,5.4-0.95s4.97-0.95,5.4-0.95c5.29,0,12.01,1.54,20.15,4.6
		c8.14,3.07,11.69,4.6,10.63,4.6c0.63,0,2.22-0.53,4.76-1.59C614.36,47.13,615.94,46.49,616.58,46.28z M641.97,102.46
		c-5.93-9.73-11.85-19.46-17.77-29.2c-8.25-11.63-17.35-19.36-27.3-23.17c-5.29-2.11-8.04-3.17-8.25-3.17h-2.86l12.7,40.31
		c9.09,1.48,18.62,4.13,28.56,7.93c3.17,1.27,6.24,2.86,9.2,4.76c2.33,1.7,3.6,2.54,3.81,2.54H641.97z M633.72,79.92l-15.55-30.79
		c-0.85,0.43-2.01,1.01-3.49,1.75c-1.48,0.74-2.65,1.32-3.49,1.75C619.22,59.61,626.74,68.71,633.72,79.92z"/>
</g>
<radialGradient id="SVGID_00000157993539578022893460000000418640321392547255_" cx="313.936" cy="191.4269" r="141.2115" gradientUnits="userSpaceOnUse">
	<stop  offset="0" style="stop-color:#FFEF26"/>
	<stop  offset="0.0595" style="stop-color:#FFE000"/>
	<stop  offset="0.1303" style="stop-color:#FFD300"/>
	<stop  offset="0.2032" style="stop-color:#FECB00"/>
	<stop  offset="0.2809" style="stop-color:#FDC800"/>
	<stop  offset="0.6685" style="stop-color:#F18F34"/>
	<stop  offset="0.8876" style="stop-color:#E95F32"/>
	<stop  offset="1" style="stop-color:#E3312D"/>
</radialGradient>
<path style="fill:url(#SVGID_00000157993539578022893460000000418640321392547255_);" d="M412.64,123.92V99.91h11.99v11.99
	L412.64,123.92z"/>
<radialGradient id="SVGID_00000093891630249750927450000003625567198418398651_" cx="313.936" cy="191.4269" r="141.2115" gradientUnits="userSpaceOnUse">
	<stop  offset="0" style="stop-color:#FFEF26"/>
	<stop  offset="0.0595" style="stop-color:#FFE000"/>
	<stop  offset="0.1303" style="stop-color:#FFD300"/>
	<stop  offset="0.2032" style="stop-color:#FECB00"/>
	<stop  offset="0.2809" style="stop-color:#FDC800"/>
	<stop  offset="0.6685" style="stop-color:#F18F34"/>
	<stop  offset="0.8876" style="stop-color:#E95F32"/>
	<stop  offset="1" style="stop-color:#E3312D"/>
</radialGradient>
<path style="fill:url(#SVGID_00000093891630249750927450000003625567198418398651_);" d="M438.42,183.9l-9-9.03v-5.99l11.99-12.02
	v15.01h11.99v-8.99l-23.98-23.99v-5.97h5.98l-5.98-6.01v-6.01l9-9h18l9,9v6.01L453.4,138.9v-14.98h-11.99v9l24.01,23.98v18l-9,9
	H438.42z"/>
<radialGradient id="SVGID_00000017500435477119430730000017694578782076916611_" cx="313.936" cy="191.4269" r="141.2115" gradientUnits="userSpaceOnUse">
	<stop  offset="0" style="stop-color:#FFEF26"/>
	<stop  offset="0.0595" style="stop-color:#FFE000"/>
	<stop  offset="0.1303" style="stop-color:#FFD300"/>
	<stop  offset="0.2032" style="stop-color:#FECB00"/>
	<stop  offset="0.2809" style="stop-color:#FDC800"/>
	<stop  offset="0.6685" style="stop-color:#F18F34"/>
	<stop  offset="0.8876" style="stop-color:#E95F32"/>
	<stop  offset="1" style="stop-color:#E3312D"/>
</radialGradient>
<path style="fill:url(#SVGID_00000017500435477119430730000017694578782076916611_);" d="M323.32,275.88V263.9h-2.99l-9-9v-41.98
	h5.98l-5.98-6.01v-6.01l9-9h18l9,9v54l-9,9h-3.02v11.99H323.32z M335.31,248.92v-45h-11.99v32.98L335.31,248.92z"/>
<radialGradient id="SVGID_00000057849491045320158220000003068380484459340955_" cx="313.936" cy="191.4269" r="141.2115" gradientUnits="userSpaceOnUse">
	<stop  offset="0" style="stop-color:#FFEF26"/>
	<stop  offset="0.0595" style="stop-color:#FFE000"/>
	<stop  offset="0.1303" style="stop-color:#FFD300"/>
	<stop  offset="0.2032" style="stop-color:#FECB00"/>
	<stop  offset="0.2809" style="stop-color:#FDC800"/>
	<stop  offset="0.6685" style="stop-color:#F18F34"/>
	<stop  offset="0.8876" style="stop-color:#E95F32"/>
	<stop  offset="1" style="stop-color:#E3312D"/>
</radialGradient>
<path style="fill:url(#SVGID_00000057849491045320158220000003068380484459340955_);" d="M361,263.9l-9-9v-63h11.99v53.97
	l-6.01,6.01h18V191.9H388v63l-9,9H361z"/>
<radialGradient id="SVGID_00000065066033065218869600000004435523284815245218_" cx="313.936" cy="191.4269" r="141.2115" gradientUnits="userSpaceOnUse">
	<stop  offset="0" style="stop-color:#FFEF26"/>
	<stop  offset="0.0595" style="stop-color:#FFE000"/>
	<stop  offset="0.1303" style="stop-color:#FFD300"/>
	<stop  offset="0.2032" style="stop-color:#FECB00"/>
	<stop  offset="0.2809" style="stop-color:#FDC800"/>
	<stop  offset="0.6685" style="stop-color:#F18F34"/>
	<stop  offset="0.8876" style="stop-color:#E95F32"/>
	<stop  offset="1" style="stop-color:#E3312D"/>
</radialGradient>
<path style="fill:url(#SVGID_00000065066033065218869600000004435523284815245218_);" d="M401.65,263.9l-9-9v-41.98h5.98l-5.98-6.01
	v-6.01l9-9h27v12.02h-24.01v17.96h20.99l-11.99,12.02h-9v17.96h24.01v12.02H401.65z"/>
<radialGradient id="SVGID_00000119835500339648701840000009190508932263296395_" cx="313.936" cy="191.4269" r="141.2115" gradientUnits="userSpaceOnUse">
	<stop  offset="0" style="stop-color:#FFEF26"/>
	<stop  offset="0.0595" style="stop-color:#FFE000"/>
	<stop  offset="0.1303" style="stop-color:#FFD300"/>
	<stop  offset="0.2032" style="stop-color:#FECB00"/>
	<stop  offset="0.2809" style="stop-color:#FDC800"/>
	<stop  offset="0.6685" style="stop-color:#F18F34"/>
	<stop  offset="0.8876" style="stop-color:#E95F32"/>
	<stop  offset="1" style="stop-color:#E3312D"/>
</radialGradient>
<path style="fill:url(#SVGID_00000119835500339648701840000009190508932263296395_);" d="M442.31,263.9l-9-9.03v-5.99l11.99-12.02
	v15.01h11.99v-8.99l-23.98-23.99v-5.97h5.98l-5.98-6.01v-6.01l9-9h18l9,9v6.01l-12.02,11.99v-14.98H445.3v9l24.01,23.98v18l-9,9
	H442.31z"/>
<radialGradient id="SVGID_00000173846818240568555730000010393880833205324168_" cx="313.936" cy="191.4269" r="141.2115" gradientUnits="userSpaceOnUse">
	<stop  offset="0" style="stop-color:#FFEF26"/>
	<stop  offset="0.0595" style="stop-color:#FFE000"/>
	<stop  offset="0.1303" style="stop-color:#FFD300"/>
	<stop  offset="0.2032" style="stop-color:#FECB00"/>
	<stop  offset="0.2809" style="stop-color:#FDC800"/>
	<stop  offset="0.6685" style="stop-color:#F18F34"/>
	<stop  offset="0.8876" style="stop-color:#E95F32"/>
	<stop  offset="1" style="stop-color:#E3312D"/>
</radialGradient>
<path style="fill:url(#SVGID_00000173846818240568555730000010393880833205324168_);" d="M485.96,263.9v-54l6.01-5.98h-18V191.9h36
	v12.02h-12.02v59.98H485.96z"/>
</svg>
