<?xml version="1.0" encoding="utf-8"?>
<!-- Generator: Adobe Illustrator 27.3.1, SVG Export Plug-In . SVG Version: 6.00 Build 0)  -->
<svg version="1.1" id="Camada_1" xmlns="http://www.w3.org/2000/svg" xmlns:xlink="http://www.w3.org/1999/xlink" x="0px" y="0px"
	 viewBox="0 0 190.08 98.91" style="enable-background:new 0 0 190.08 98.91;" xml:space="preserve">
<g>
	<path d="M190.08,89.46c-0.84,0.18-2.73,0.9-5.67,2.16c-2.52,1.08-4.11,1.62-4.77,1.62c-5.64,0-9.9-0.72-12.78-2.16
		c-1.5-0.72-4.11-2.76-7.83-6.12c-4.02-3.72-8.49-7.05-13.41-9.99c-0.96-0.54-2.79-2.98-5.49-7.34c-2.7-4.35-5.19-7.27-7.47-8.77
		c-1.98-1.2-5.28-1.8-9.9-1.8c-1.02,0-2.2,0.03-3.55,0.09c-1.35,0.06-2.09,0.09-2.21,0.09c-4.44,0-7.68,1.68-9.72,5.04
		c-1.44,2.4-2.16,5.4-2.16,9c0,2.16,0.54,5.46,1.62,9.9c1.32,5.64,2.82,8.46,4.5,8.46c0.6,0,0.96-0.12,1.08-0.36
		c0.12-0.24,0.48-0.36,1.08-0.36c0.96,0,2.61,0.48,4.95,1.44c2.58,1.02,4.41,2.07,5.49,3.15c-0.66,1.2-1.73,1.86-3.19,1.98
		c-1.47,0.12-2.9,0.18-4.27,0.18c-2.04,0.06-3.63,0.57-4.77,1.53c0.48,0.48,1.56,0.72,3.24,0.72h-8.64c0.72,0,1.32-0.24,1.8-0.72
		c-2.76-1.8-5.4-5.88-7.92-12.24c-2.1-5.7-4.2-11.4-6.3-17.1c-0.6-2.34-1.2-4.65-1.8-6.93c-0.9-3.18-2.19-5.52-3.87-7.02
		c-0.66,0.12-1.29,0.18-1.89,0.18c-2.46,0-4.89-1.56-7.29-4.68c-3.06-4.08-5.31-6.51-6.75-7.29c-1.08-0.3-1.62,0.18-1.62,1.44
		c0,0.6,0.72,2.64,2.16,6.12c1.44,3.48,2.16,5.52,2.16,6.12c0,2.88-2.06,7.5-6.17,13.86c-4.11,6.36-6.14,10.71-6.07,13.05
		c0.84,0.78,3.24,1.83,7.2,3.15c3.48,1.14,5.88,2.73,7.2,4.77v3.15c-1.02,1.08-2.34,1.62-3.96,1.62c-6.72,0-13.8-1.74-21.24-5.22
		c0.6-4.02,2.13-10.02,4.59-18c2.22-7.2,3.33-11.46,3.33-12.78c0-1.5-1.59-4.38-4.77-8.64c-1.2,0.72-2.91,2.43-5.13,5.13
		c-1.92,2.34-3.18,3.51-3.78,3.51c-0.66,0-3.54-1.32-8.64-3.96c-4.44-2.28-8.88-4.56-13.32-6.84c-0.36,0.18-0.75,0.4-1.17,0.67
		c-0.42,0.27-0.63,0.77-0.63,1.48c0,0.6,0.48,2.16,1.44,4.68c0.96,2.52,1.44,4.08,1.44,4.68c0,1.98-3.06,4.11-9.18,6.39
		c0-0.12,0.24-0.66,0.72-1.62c0.72-1.32,1.38-2.76,1.98-4.32c-0.42-0.78-1.14-1.17-2.16-1.17c-0.72,0-1.47,0.36-2.25,1.08
		c-1.02,1.02-1.68,1.59-1.98,1.71c1.68-4.2,2.7-8.58,3.06-13.14c0.18-3.48,1.11-6.27,2.79-8.37c1.56,0,5.62,1.08,12.19,3.24
		s10,3.24,10.31,3.24c2.16,0,3.24-1.68,3.24-5.04c0-2.34-0.48-5.62-1.44-9.85c-0.96-4.23-1.86-6.94-2.7-8.15
		C27.3,24.78,18.09,29.4,12.15,37.98c-4.74,6.84-7.11,15.54-7.11,26.1c0,9.06,2.4,16.11,7.2,21.15c5.64,5.94,14.16,8.7,25.56,8.28
		c-1.74,1.26-3.66,1.89-5.76,1.89c-10.5,0-18.57-3.18-24.21-9.54C2.61,79.92,0,71.82,0,61.56c0-11.28,3.63-21.24,10.89-29.88
		c6.36-7.5,14.88-13.38,25.56-17.64c9.72-3.84,19.53-5.76,29.43-5.76c4.98,0,13.93,1.92,26.87,5.76
		c12.93,3.84,21.01,5.76,24.25,5.76c2.46,0,5.28-0.93,8.46-2.79c2.76-1.74,5.55-3.48,8.37-5.22C137.31,9.93,140.7,9,144,9
		c2.7,0,4.74,0.24,6.12,0.72c0.96,0.36,3.6,1.68,7.92,3.96c0.24,0.6,0.36,1.26,0.36,1.98c0,0.66-0.14,1.68-0.41,3.06
		c-0.27,1.38-0.4,2.4-0.4,3.06c0,0.66,0.06,1.26,0.18,1.8c1.38,1.26,2.76,2.49,4.14,3.69c1.5,1.56,2.25,3.15,2.25,4.77
		c0,0.48-0.13,1.47-0.41,2.97c-0.27,1.5-0.4,2.61-0.4,3.33c-3.18,1.2-8.94,3.84-17.28,7.92c-0.06,0.3-0.09,0.66-0.09,1.08
		c0,4.74,3.99,12.5,11.97,23.27c7.98,10.77,13.65,16.15,17.01,16.15c0.48,0,1.71-0.48,3.69-1.44c1.98-0.96,3.27-1.44,3.87-1.44
		c0.84,0,2.14,0.61,3.91,1.85C188.2,86.95,189.42,88.2,190.08,89.46z"/>
</g>
</svg>
